<?xml version="1.0" encoding="UTF-8"?>
<svg xmlns="http://www.w3.org/2000/svg" xmlns:xlink="http://www.w3.org/1999/xlink" width="119.548" height="118" viewBox="0 0 119.548 118">
  <defs>
    <clipPath id="clip-path">
      <rect id="Rectangle_34" data-name="Rectangle 34" width="119.548" height="118" fill="#f7f5f4"></rect>
    </clipPath>
  </defs>
  <g id="Group_16" data-name="Group 16" transform="translate(0 0.002)">
    <g id="Group_16-2" data-name="Group 16" transform="translate(0 -0.002)" clip-path="url(#clip-path)">
      <path id="Path_7" data-name="Path 7" d="M787.241,1356.329c.234.067.407.113.577.167a11.864,11.864,0,0,0,4.374.531,6.594,6.594,0,0,0,2.126-.463,3.249,3.249,0,0,0,.933-.559,1.456,1.456,0,0,0-.469-2.537,2.181,2.181,0,0,0-.587-.146c-.483-.029-.969-.027-1.453-.033-.182,0-.365,0-.546.014-.626.032-1.253.067-1.879.1a4.044,4.044,0,0,1-.546.013,17.9,17.9,0,0,1-1.927-.21,4.175,4.175,0,0,1-3.436-3.418,4.515,4.515,0,0,1,.975-4.036,7.26,7.26,0,0,1,2.413-1.907,12.583,12.583,0,0,1,4.279-1.282,11.465,11.465,0,0,1,2.12-.092c.644.041,1.285.146,1.926.231a1.43,1.43,0,0,1,.292.111,13.937,13.937,0,0,1-.187,1.755,9.661,9.661,0,0,1-.267,1.75,1.234,1.234,0,0,1-.3.05c-.382-.037-.763-.081-1.142-.135a10.943,10.943,0,0,0-3.919.168,5.1,5.1,0,0,0-1.02.377,2.036,2.036,0,0,0-.542.384,1.242,1.242,0,0,0,.162,1.988,2.375,2.375,0,0,0,1.018.365,11.32,11.32,0,0,0,2.121.048c1.011-.033,2.025-.064,3.035-.035a5.948,5.948,0,0,1,2.066.448,3.969,3.969,0,0,1,1.86,1.5,4.841,4.841,0,0,1-.471,6.146,8.681,8.681,0,0,1-1.14,1,10.294,10.294,0,0,1-3.638,1.614,12.96,12.96,0,0,1-4.034.348,10.934,10.934,0,0,1-2.966-.578c-.281-.1-.356-.191-.323-.43.132-.941.27-1.881.41-2.821.018-.118.057-.232.106-.425" transform="translate(-735.595 -1259.127)" fill="#f7f5f4"></path>
      <path id="Path_8" data-name="Path 8" d="M12.094,1608.933a2.364,2.364,0,0,1,.025.427c-.1.782-.206,1.563-.308,2.345-.021.16-.027.323-.048.483-.035.269-.147.353-.406.314-.239-.036-.481-.058-.719-.1a12.646,12.646,0,0,0-2.665-.1,7.32,7.32,0,0,0-2.144.366,3.155,3.155,0,0,0-.961.51,1.29,1.29,0,0,0,.268,2.235,2.447,2.447,0,0,0,.691.219,13.694,13.694,0,0,0,1.514.082c1.215,0,2.429-.051,3.643-.044a6.232,6.232,0,0,1,1.32.173,4.38,4.38,0,0,1,3.469,3.571,4.56,4.56,0,0,1-1.046,4.134,7.978,7.978,0,0,1-3.09,2.2,12.147,12.147,0,0,1-3.628.921,11.945,11.945,0,0,1-1.755.084,12.863,12.863,0,0,1-3.571-.626,1.192,1.192,0,0,1-.2-.113,19.814,19.814,0,0,1,.473-3.477c.211-.1.39.043.573.1a12.018,12.018,0,0,0,3.95.556,7.376,7.376,0,0,0,2.551-.487,2.851,2.851,0,0,0,1.1-.733,1.433,1.433,0,0,0-.375-2.234,2.142,2.142,0,0,0-.68-.246,9.608,9.608,0,0,0-2.115-.074c-1.15.069-2.306.043-3.46.057a4.8,4.8,0,0,1-1.253-.2,4.058,4.058,0,0,1-3.036-3.014,4.593,4.593,0,0,1,.933-4.44A7.259,7.259,0,0,1,3,1610.258a11.992,11.992,0,0,1,3.732-1.4,13.812,13.812,0,0,1,3.687-.229,4.863,4.863,0,0,1,1.676.309" transform="translate(0 -1508.75)" fill="#f7f5f4"></path>
      <path id="Path_9" data-name="Path 9" d="M262.455,1531.74a.619.619,0,0,1,.176.032q1.292.673,2.58,1.353c.105.056.2.13.326.212a1.7,1.7,0,0,1-.106.342,10.093,10.093,0,0,1-6.388,5.136,8.787,8.787,0,0,1-9.939-4.125,8.7,8.7,0,0,1-1.214-4.458,8.366,8.366,0,0,1,2.351-5.885,9.607,9.607,0,0,1,5.647-2.967,9.836,9.836,0,0,1,5.25.559q.225.09.444.2a1.125,1.125,0,0,1,.165.127,4.385,4.385,0,0,1-.373,1.125c-.147.4-.3.8-.463,1.187a6.778,6.778,0,0,1-.495,1.13,3.257,3.257,0,0,1-.346-.126,6.4,6.4,0,0,0-1.77-.617,4.933,4.933,0,0,0-5.13,1.842,4.77,4.77,0,0,0-.9,3.9,5.37,5.37,0,0,0,2.275,3.662,4.687,4.687,0,0,0,5.111.257,6.491,6.491,0,0,0,2.417-2.341,1.758,1.758,0,0,1,.385-.542" transform="translate(-232.503 -1426.828)" fill="#f7f5f4"></path>
      <path id="Path_10" data-name="Path 10" d="M1655.639,1049.864c-.419,1.1-.845,2.235-1.34,3.381-.2-.087-.365-.152-.524-.229a6.3,6.3,0,0,0-2.687-.666,4.922,4.922,0,0,0-4.782,3.353,5.552,5.552,0,0,0,3.061,6.7,4.742,4.742,0,0,0,4.263-.321,6.641,6.641,0,0,0,2.307-2.286c.117-.185.24-.367.354-.541a21.673,21.673,0,0,1,3.114,1.619,2.179,2.179,0,0,1-.135.373,10.022,10.022,0,0,1-6.539,5.121,9.354,9.354,0,0,1-3.01.2,8.423,8.423,0,0,1-4.654-1.878,8.856,8.856,0,0,1-3.041-4.854,8.606,8.606,0,0,1,3.81-9.424,9.848,9.848,0,0,1,6.049-1.635,9.562,9.562,0,0,1,3.243.719c.18.076.393.116.512.362" transform="translate(-1539.856 -983.672)" fill="#f7f5f4"></path>
      <path id="Path_11" data-name="Path 11" d="M1198.851,1225.451c.251.132.265.376.335.578.338.974.662,1.953.992,2.93q1.478,4.366,2.959,8.732c.077.226.175.444.258.653a1.139,1.139,0,0,0,.684-.115q1.782-.6,3.562-1.206,1.092-.37,2.183-.74c.171-.057.345-.1.55-.164a1.545,1.545,0,0,1,.189.3c.309.9.611,1.8.912,2.7a2.336,2.336,0,0,1,.053.275,2.979,2.979,0,0,1-.362.179q-4.85,1.648-9.7,3.288a2.914,2.914,0,0,1-.922.258.671.671,0,0,1-.117-.154q-2.7-7.924-5.385-15.85a1.962,1.962,0,0,1-.051-.313.9.9,0,0,1,.2-.137q1.723-.586,3.449-1.162a2.157,2.157,0,0,1,.215-.05" transform="translate(-1120.818 -1149.389)" fill="#f7f5f4"></path>
      <path id="Path_12" data-name="Path 12" d="M1414.32,1170.534a1.91,1.91,0,0,1-.332-.756q-1.064-3.129-2.12-6.261-1.451-4.279-2.9-8.557c-.071-.208-.137-.418-.211-.646a1.779,1.779,0,0,1,.322-.2q1.72-.593,3.446-1.171a.629.629,0,0,1,.184,0,1.244,1.244,0,0,1,.279.593q1.618,4.766,3.235,9.533c.247.728.487,1.457.738,2.183.071.205.1.439.313.586a1.584,1.584,0,0,0,.69-.161q2.787-.941,5.573-1.885a1.736,1.736,0,0,1,.646-.161,1.154,1.154,0,0,1,.149.2c.154.338.908,2.673.973,2.995-.133.244-.4.249-.622.325-1.337.463-2.68.908-4.02,1.362-1.894.641-3.787,1.287-5.683,1.924a.916.916,0,0,1-.658.105" transform="translate(-1321.314 -1081.37)" fill="#f7f5f4"></path>
      <path id="Path_13" data-name="Path 13" d="M1081.229,1513.5c.06-.944.114-1.807.17-2.682-.165-.1-.3-.177-.436-.259a1.938,1.938,0,0,1-.956-1.9,1.768,1.768,0,0,1,1.15-1.577,1.906,1.906,0,0,1,2.777,1.694,3.281,3.281,0,0,1-.112,1.2c-.252.852-.5,1.706-.722,2.565a.724.724,0,0,1-.545.575c-.329.1-.648.226-.974.332a2.269,2.269,0,0,1-.351.048" transform="translate(-1012.968 -1413.348)" fill="#f7f5f4"></path>
      <path id="Path_14" data-name="Path 14" d="M512.246,1441.24a3.994,3.994,0,0,0-2.136-1.523,5.085,5.085,0,0,0-1.381-.165c-.153,0-.327.054-.459-.105,0-.217.2-.289.32-.4a3.716,3.716,0,0,0,1.288-3.14,3.578,3.578,0,0,0-2.117-3.162,4.67,4.67,0,0,0-1.817-.435,9.588,9.588,0,0,0-3.579.54c-.921.308-1.839.625-2.759.936-1.437.487-2.876.968-4.311,1.461a1.233,1.233,0,0,0-.651.315,1.251,1.251,0,0,0,.151.7q1.643,4.857,3.3,9.711.916,2.7,1.829,5.4c.063.184.076.4.312.514.083-.024.18-.048.274-.08,2.681-.908,5.363-1.809,8.04-2.729a9.034,9.034,0,0,0,2.313-1.194,5.978,5.978,0,0,0,1.644-1.684,3.961,3.961,0,0,0,.627-1.693,4.6,4.6,0,0,0-.884-3.264m-11.406-.534a3.453,3.453,0,0,1-.161-.331c-.321-.936-.641-1.872-.953-2.811-.1-.309-.068-.382.253-.493q1.659-.572,3.325-1.124a2.8,2.8,0,0,1,1.261-.056,1.377,1.377,0,0,1,.7.342,1.861,1.861,0,0,1,.1,2.747,2.693,2.693,0,0,1-1.035.612c-.611.211-1.224.416-1.836.622-.4.136-.8.274-1.207.4a4.3,4.3,0,0,1-.448.088m7.588,4.3a2.026,2.026,0,0,1-.7.742,6.556,6.556,0,0,1-1.081.542c-.988.36-1.989.684-2.985,1.025a.814.814,0,0,1-.56.056,2.092,2.092,0,0,1-.154-.3c-.336-.976-.666-1.953-1-2.93a2.314,2.314,0,0,1-.07-.232.269.269,0,0,1,.171-.343c.129-.057.265-.1.4-.146.9-.3,1.8-.611,2.7-.906.306-.1.622-.172.936-.25a2.5,2.5,0,0,1,1.258.049,1.855,1.855,0,0,1,1.083,2.691" transform="translate(-463.929 -1343.396)" fill="#f7f5f4"></path>
      <path id="Path_15" data-name="Path 15" d="M535.948,294.484l-13.9-4.163.742-2.562,14.113,4.277Z" transform="translate(-489.645 -269.898)" fill="#f7f5f4"></path>
      <path id="Path_16" data-name="Path 16" d="M535.779,389.736l-14.1-4.118.826-2.638,13.976,4.2Z" transform="translate(-489.301 -359.209)" fill="#f7f5f4"></path>
      <path id="Path_17" data-name="Path 17" d="M536.514,486.649l-13.976-4.1.7-2.638,14.075,4.186Z" transform="translate(-490.104 -450.121)" fill="#f7f5f4"></path>
      <path id="Path_18" data-name="Path 18" d="M535.64,582.538l-14.2-3.958.826-2.6,14.022,4.232Z" transform="translate(-489.071 -540.229)" fill="#f7f5f4"></path>
      <path id="Path_19" data-name="Path 19" d="M536.636,772.63l-13.976-4.11.727-2.631,14.022,4.2Z" transform="translate(-490.219 -718.352)" fill="#f7f5f4"></path>
      <path id="Path_20" data-name="Path 20" d="M535.895,679.011l-13.969-4.133.773-2.63,14.022,4.2Z" transform="translate(-489.531 -630.522)" fill="#f7f5f4"></path>
      <path id="Path_21" data-name="Path 21" d="M223.77,261.092v54.181l-16.888,5.394V266.394Z" transform="translate(-194.041 -244.886)" fill="#f7f5f4"></path>
      <path id="Path_22" data-name="Path 22" d="M1318.254,175.422l-13.9-4.163.742-2.562,14.113,4.277Z" transform="translate(-1223.395 -158.226)" fill="#f7f5f4"></path>
      <path id="Path_23" data-name="Path 23" d="M1318.345,80.222l-13.991-4.072.735-2.623,13.969,4.178Z" transform="translate(-1223.394 -68.963)" fill="#f7f5f4"></path>
      <path id="Path_24" data-name="Path 24" d="M1318.085,270.674l-14.1-4.118.826-2.638,13.976,4.2Z" transform="translate(-1223.05 -247.537)" fill="#f7f5f4"></path>
      <path id="Path_25" data-name="Path 25" d="M1318.82,367.587l-13.976-4.1.7-2.638,14.075,4.186Z" transform="translate(-1223.854 -338.449)" fill="#f7f5f4"></path>
      <path id="Path_26" data-name="Path 26" d="M1317.946,463.476l-14.2-3.958.826-2.6,14.022,4.232Z" transform="translate(-1222.82 -428.557)" fill="#f7f5f4"></path>
      <path id="Path_27" data-name="Path 27" d="M1318.942,653.569l-13.976-4.11.727-2.63,14.022,4.2Z" transform="translate(-1223.969 -606.68)" fill="#f7f5f4"></path>
      <path id="Path_28" data-name="Path 28" d="M1318.2,559.949l-13.969-4.133.772-2.631,14.022,4.2Z" transform="translate(-1223.28 -518.85)" fill="#f7f5f4"></path>
      <path id="Path_29" data-name="Path 29" d="M1007.766,0V54.179l-16.888,5.394V5.3Z" transform="translate(-929.376 0.002)" fill="#f7f5f4"></path>
      <path id="Path_30" data-name="Path 30" d="M69.574,838.6l.154-10.513L60.981,825l-.3,16.643L29.94,852.713l.014,7.458,93.75-31.44.044-8.174Z" transform="translate(-28.082 -769.626)" fill="#f7f5f4"></path>
    </g>
  </g>
</svg>
