<?xml version="1.0" encoding="UTF-8"?>
<svg xmlns="http://www.w3.org/2000/svg" width="128" height="128" viewBox="0 0 128 128">
  <g id="Group_202" data-name="Group 202" transform="translate(-260 -2817)">
    <rect id="Rectangle_28" data-name="Rectangle 28" width="122" height="122" rx="61" transform="translate(263 2820)" fill="#cd611c"></rect>
    <g id="Header_Icon_update_DroneSolutions" data-name="Header Icon update_DroneSolutions" transform="translate(260 2817)">
      <g id="Group_54" data-name="Group 54">
        <path id="Path_135" data-name="Path 135" d="M64,2.753A61.247,61.247,0,1,1,2.753,64,61.383,61.383,0,0,1,64,2.753M64,0a64,64,0,1,0,64,64A63.967,63.967,0,0,0,64,0Z" fill="#f7f5f4"></path>
      </g>
      <g id="Group_58" data-name="Group 58" transform="translate(24.774 55.88)">
        <g id="Group_57" data-name="Group 57" transform="translate(0 0.551)">
          <g id="Group_56" data-name="Group 56">
            <g id="Group_55" data-name="Group 55">
              <path id="Path_136" data-name="Path 136" d="M30.662,41.1H18v1.1H29.561Z" transform="translate(-18 -40.962)" fill="#f7f5f4"></path>
              <path id="Path_137" data-name="Path 137" d="M28.9,42.1H41.563V41H27.8A4.153,4.153,0,0,0,28.9,42.1Z" transform="translate(-14.312 -41)" fill="#f7f5f4"></path>
              <path id="Path_138" data-name="Path 138" d="M67.862,41.1H55.2v1.1H66.761A8.3,8.3,0,0,0,67.862,41.1Z" transform="translate(-4 -40.962)" fill="#f7f5f4"></path>
              <path id="Path_139" data-name="Path 139" d="M65,41.1a4.189,4.189,0,0,0,1.1,1.1H78.763V41.1Z" transform="translate(-0.312 -40.962)" fill="#f7f5f4"></path>
            </g>
            <circle id="Ellipse_12" data-name="Ellipse 12" cx="1.239" cy="1.239" r="1.239" transform="translate(38.262 6.331)" fill="#f7f5f4"></circle>
          </g>
        </g>
        <path id="Path_140" data-name="Path 140" d="M88.165,48.72c0-4.129-4.817-3.991-7.432-7.432-1.927,2.477-4.542,3.166-6.056,4.542h-9.5V44.041A3.407,3.407,0,0,0,61.739,40.6H50.177a3.407,3.407,0,0,0-3.441,3.441V45.83H35.726c-1.652-1.514-4.4-2.2-6.194-4.542-2.89,3.854-7.432,3.3-7.432,7.432a3.727,3.727,0,0,0,2.753,3.991c-.138.138-.138.275-.138.551,0,.963,1.239,1.789,3.028,2.2v1.1h3.028v-1.1c2.065-.275,3.578-1.239,3.578-2.34a.827.827,0,0,0-.138-.551A4.856,4.856,0,0,0,36,51.473H46.737v1.789A3.407,3.407,0,0,0,50.177,56.7H61.739a3.407,3.407,0,0,0,3.441-3.441V51.473h9.084a3.952,3.952,0,0,0,1.789,1.1c-.138.138-.138.275-.138.551,0,1.1,1.376,1.927,3.166,2.2v1.1h3.028v-1.1c1.927-.275,3.3-1.239,3.3-2.2a.828.828,0,0,0-.138-.551C87.063,52.161,88.165,51.06,88.165,48.72ZM57.61,51.611a3.51,3.51,0,0,1-3.3,0,3.229,3.229,0,0,1,0-5.781,2.935,2.935,0,0,1,1.652-.413,3.665,3.665,0,0,1,1.652.413A3.21,3.21,0,0,1,59.4,48.72,3.815,3.815,0,0,1,57.61,51.611Z" transform="translate(-16.457 -40.6)" fill="#f7f5f4"></path>
      </g>
    </g>
  </g>
</svg>
