<?xml version="1.0" encoding="UTF-8"?>
<svg xmlns="http://www.w3.org/2000/svg" width="1920" height="1109" viewBox="0 0 1920 1109">
  <g id="Group_212" data-name="Group 212" transform="translate(0 -1170)">
    <rect id="Rectangle_135" data-name="Rectangle 135" width="1920" height="1109" transform="translate(0 1170)" fill="none"></rect>
    <g id="Group_196" data-name="Group 196" transform="translate(0 -1545)" opacity="0.15">
      <path id="Path_235" data-name="Path 235" d="M528.46,332.916l93.333-27.954-4.983-17.2-94.761,28.72Z" transform="translate(1247.952 2935.082)" fill="#6b96bb"></path>
      <path id="Path_236" data-name="Path 236" d="M526.409,428.342l94.659-27.648-5.544-17.714-93.843,28.21Z" transform="translate(1248.83 2879.545)" fill="#6b96bb"></path>
      <path id="Path_237" data-name="Path 237" d="M527.878,525.168l93.843-27.546-4.678-17.713-94.506,28.107Z" transform="translate(1247.82 2823.013)" fill="#6b96bb"></path>
      <path id="Path_238" data-name="Path 238" d="M525.756,620.014l95.373-26.577-5.544-17.458-94.15,28.414Z" transform="translate(1248.87 2766.98)" fill="#6b96bb"></path>
      <path id="Path_239" data-name="Path 239" d="M527.847,811.15l93.843-27.6-4.882-17.662L522.66,794.1Z" transform="translate(1247.8 2656.216)" fill="#6b96bb"></path>
      <path id="Path_240" data-name="Path 240" d="M527.471,717.66l93.792-27.751-5.187-17.662-94.149,28.209Z" transform="translate(1248.533 2710.832)" fill="#6b96bb"></path>
      <path id="Path_236-2" data-name="Path 236" d="M526.409,428.342l94.659-27.648-5.544-17.714-93.843,28.21Z" transform="translate(1248.83 3079.045)" fill="#6b96bb"></path>
      <path id="Path_237-2" data-name="Path 237" d="M527.878,525.168l93.843-27.546-4.678-17.713-94.506,28.107Z" transform="translate(1247.82 3022.513)" fill="#6b96bb"></path>
      <path id="Path_238-2" data-name="Path 238" d="M525.756,620.014l95.373-26.577-5.544-17.458-94.15,28.414Z" transform="translate(1248.87 2966.48)" fill="#6b96bb"></path>
      <path id="Path_240-2" data-name="Path 240" d="M527.471,717.66l93.792-27.751-5.187-17.662-94.149,28.209Z" transform="translate(1248.533 2910.332)" fill="#6b96bb"></path>
      <path id="Path_236-3" data-name="Path 236" d="M526.409,428.342l94.659-27.648-5.544-17.714-93.843,28.21Z" transform="translate(1248.83 2643.02)" fill="#6b96bb"></path>
      <path id="Path_237-3" data-name="Path 237" d="M527.878,525.168l93.843-27.546-4.678-17.713-94.506,28.107Z" transform="translate(1247.82 2586.488)" fill="#6b96bb"></path>
      <path id="Path_238-3" data-name="Path 238" d="M525.756,620.014l95.373-26.577-5.544-17.458-94.15,28.414Z" transform="translate(1248.87 2530.455)" fill="#6b96bb"></path>
      <path id="Path_239-2" data-name="Path 239" d="M527.847,811.15l93.843-27.6-4.882-17.662L522.66,794.1Z" transform="translate(1247.8 2419.691)" fill="#6b96bb"></path>
      <path id="Path_240-3" data-name="Path 240" d="M527.471,717.66l93.792-27.751-5.187-17.662-94.149,28.209Z" transform="translate(1248.533 2474.307)" fill="#6b96bb"></path>
      <path id="Path_236-4" data-name="Path 236" d="M526.409,428.342l94.659-27.648-5.544-17.714-93.843,28.21Z" transform="translate(1248.83 2444.02)" fill="#6b96bb"></path>
      <path id="Path_241" data-name="Path 241" d="M526.409,428.342l94.659-27.648-5.544-17.714-93.843,28.21Z" transform="translate(1248.932 2404.02)" fill="#6b96bb"></path>
      <path id="Path_237-4" data-name="Path 237" d="M527.878,525.168l93.843-27.546-4.678-17.713-94.506,28.107Z" transform="translate(1247.82 2387.488)" fill="#6b96bb"></path>
      <path id="Path_238-4" data-name="Path 238" d="M525.756,620.014l95.373-26.577-5.544-17.458-94.15,28.414Z" transform="translate(1248.87 2331.455)" fill="#6b96bb"></path>
      <path id="Path_239-3" data-name="Path 239" d="M527.847,811.15l93.843-27.6-4.882-17.662L522.66,794.1Z" transform="translate(1247.8 2220.691)" fill="#6b96bb"></path>
      <path id="Path_240-4" data-name="Path 240" d="M527.471,717.66l93.792-27.751-5.187-17.662-94.149,28.209Z" transform="translate(1248.533 2275.307)" fill="#6b96bb"></path>
      <path id="Path_236-5" data-name="Path 236" d="M526.409,428.342l94.659-27.648-5.544-17.714-93.843,28.21Z" transform="translate(1248.83 3240.02)" fill="#6b96bb"></path>
      <path id="Path_237-5" data-name="Path 237" d="M527.878,525.168l93.843-27.546-4.678-17.713-94.506,28.107Z" transform="translate(1247.82 3183.488)" fill="#6b96bb"></path>
      <path id="Path_238-5" data-name="Path 238" d="M525.756,620.014l95.373-26.577-5.544-17.458-94.15,28.414Z" transform="translate(1248.87 3127.455)" fill="#6b96bb"></path>
    </g>
    <g id="Group_197" data-name="Group 197" transform="translate(60 1242)" opacity="0.15">
      <path id="Path_235-2" data-name="Path 235" d="M615.381,332.916l-93.333-27.954,4.983-17.2,94.761,28.719Z" transform="translate(-521.793 148.082)" fill="#6b96bb"></path>
      <path id="Path_236-6" data-name="Path 236" d="M616.34,428.342l-94.659-27.648,5.544-17.714,93.843,28.21Z" transform="translate(-521.579 92.544)" fill="#6b96bb"></path>
      <path id="Path_237-6" data-name="Path 237" d="M616.38,525.167l-93.843-27.546,4.678-17.713,94.506,28.107Z" transform="translate(-522.078 36.013)" fill="#6b96bb"></path>
      <path id="Path_238-6" data-name="Path 238" d="M616.809,620.014l-95.373-26.577,5.544-17.458,94.15,28.414Z" transform="translate(-521.436 -20.021)" fill="#6b96bb"></path>
      <path id="Path_239-4" data-name="Path 239" d="M616.5,811.15l-93.843-27.6,4.882-17.662L621.69,794.1Z" transform="translate(-522.15 -130.784)" fill="#6b96bb"></path>
      <path id="Path_240-5" data-name="Path 240" d="M615.718,717.66l-93.792-27.751,5.188-17.662,94.149,28.209Z" transform="translate(-521.722 -76.169)" fill="#6b96bb"></path>
      <path id="Path_236-7" data-name="Path 236" d="M616.34,428.342l-94.659-27.648,5.544-17.714,93.843,28.21Z" transform="translate(-521.579 292.044)" fill="#6b96bb"></path>
      <path id="Path_237-7" data-name="Path 237" d="M616.38,525.167l-93.843-27.546,4.678-17.713,94.506,28.107Z" transform="translate(-522.078 235.513)" fill="#6b96bb"></path>
      <path id="Path_238-7" data-name="Path 238" d="M616.809,620.014l-95.373-26.577,5.544-17.458,94.15,28.414Z" transform="translate(-521.436 179.479)" fill="#6b96bb"></path>
      <path id="Path_240-6" data-name="Path 240" d="M615.718,717.66l-93.792-27.751,5.188-17.662,94.149,28.209Z" transform="translate(-521.722 123.331)" fill="#6b96bb"></path>
      <path id="Path_236-8" data-name="Path 236" d="M616.34,428.342l-94.659-27.648,5.544-17.714,93.843,28.21Z" transform="translate(-521.579 -143.98)" fill="#6b96bb"></path>
      <path id="Path_237-8" data-name="Path 237" d="M616.38,525.167l-93.843-27.546,4.678-17.713,94.506,28.107Z" transform="translate(-522.078 -200.512)" fill="#6b96bb"></path>
      <path id="Path_238-8" data-name="Path 238" d="M616.809,620.014l-95.373-26.577,5.544-17.458,94.15,28.414Z" transform="translate(-521.436 -256.545)" fill="#6b96bb"></path>
      <path id="Path_239-5" data-name="Path 239" d="M616.5,811.15l-93.843-27.6,4.882-17.662L621.69,794.1Z" transform="translate(-522.15 -367.309)" fill="#6b96bb"></path>
      <path id="Path_240-7" data-name="Path 240" d="M615.718,717.66l-93.792-27.751,5.188-17.662,94.149,28.209Z" transform="translate(-521.722 -312.693)" fill="#6b96bb"></path>
      <path id="Path_236-9" data-name="Path 236" d="M616.34,428.342l-94.659-27.648,5.544-17.714,93.843,28.21Z" transform="translate(-521.579 -342.98)" fill="#6b96bb"></path>
      <path id="Path_241-2" data-name="Path 241" d="M616.34,428.342l-94.659-27.648,5.544-17.714,93.843,28.21Z" transform="translate(-521.681 -382.98)" fill="#6b96bb"></path>
      <path id="Path_237-9" data-name="Path 237" d="M616.38,525.167l-93.843-27.546,4.678-17.713,94.506,28.107Z" transform="translate(-522.078 -399.512)" fill="#6b96bb"></path>
      <path id="Path_238-9" data-name="Path 238" d="M616.809,620.014l-95.373-26.577,5.544-17.458,94.15,28.414Z" transform="translate(-521.436 -455.545)" fill="#6b96bb"></path>
      <path id="Path_239-6" data-name="Path 239" d="M616.5,811.15l-93.843-27.6,4.882-17.662L621.69,794.1Z" transform="translate(-522.15 -566.309)" fill="#6b96bb"></path>
      <path id="Path_240-8" data-name="Path 240" d="M615.718,717.66l-93.792-27.751,5.188-17.662,94.149,28.209Z" transform="translate(-521.722 -511.693)" fill="#6b96bb"></path>
      <path id="Path_236-10" data-name="Path 236" d="M616.34,428.342l-94.659-27.648,5.544-17.714,93.843,28.21Z" transform="translate(-521.579 453.019)" fill="#6b96bb"></path>
      <path id="Path_237-10" data-name="Path 237" d="M616.38,525.167l-93.843-27.546,4.678-17.713,94.506,28.107Z" transform="translate(-522.078 396.488)" fill="#6b96bb"></path>
      <path id="Path_238-10" data-name="Path 238" d="M616.809,620.014l-95.373-26.577,5.544-17.458,94.15,28.414Z" transform="translate(-521.436 340.454)" fill="#6b96bb"></path>
    </g>
  </g>
</svg>
