<?xml version="1.0" encoding="UTF-8"?>
<svg xmlns="http://www.w3.org/2000/svg" width="100" height="960.469" viewBox="0 0 100 960.469">
  <g id="Group_197" data-name="Group 197" opacity="0.15">
    <path id="Path_235" data-name="Path 235" d="M615.381,332.916l-93.333-27.954,4.983-17.2,94.761,28.719Z" transform="translate(-521.793 148.082)" fill="#6b96bb"></path>
    <path id="Path_236" data-name="Path 236" d="M616.34,428.342l-94.659-27.648,5.544-17.714,93.843,28.21Z" transform="translate(-521.579 92.544)" fill="#6b96bb"></path>
    <path id="Path_237" data-name="Path 237" d="M616.38,525.167l-93.843-27.546,4.678-17.713,94.506,28.107Z" transform="translate(-522.078 36.013)" fill="#6b96bb"></path>
    <path id="Path_238" data-name="Path 238" d="M616.809,620.014l-95.373-26.577,5.544-17.458,94.15,28.414Z" transform="translate(-521.436 -20.021)" fill="#6b96bb"></path>
    <path id="Path_239" data-name="Path 239" d="M616.5,811.15l-93.843-27.6,4.882-17.662L621.69,794.1Z" transform="translate(-522.15 -130.784)" fill="#6b96bb"></path>
    <path id="Path_240" data-name="Path 240" d="M615.718,717.66l-93.792-27.751,5.188-17.662,94.149,28.209Z" transform="translate(-521.722 -76.169)" fill="#6b96bb"></path>
    <path id="Path_236-2" data-name="Path 236" d="M616.34,428.342l-94.659-27.648,5.544-17.714,93.843,28.21Z" transform="translate(-521.579 292.044)" fill="#6b96bb"></path>
    <path id="Path_237-2" data-name="Path 237" d="M616.38,525.167l-93.843-27.546,4.678-17.713,94.506,28.107Z" transform="translate(-522.078 235.513)" fill="#6b96bb"></path>
    <path id="Path_238-2" data-name="Path 238" d="M616.809,620.014l-95.373-26.577,5.544-17.458,94.15,28.414Z" transform="translate(-521.436 179.479)" fill="#6b96bb"></path>
    <path id="Path_240-2" data-name="Path 240" d="M615.718,717.66l-93.792-27.751,5.188-17.662,94.149,28.209Z" transform="translate(-521.722 123.331)" fill="#6b96bb"></path>
    <path id="Path_236-3" data-name="Path 236" d="M616.34,428.342l-94.659-27.648,5.544-17.714,93.843,28.21Z" transform="translate(-521.579 -143.98)" fill="#6b96bb"></path>
    <path id="Path_237-3" data-name="Path 237" d="M616.38,525.167l-93.843-27.546,4.678-17.713,94.506,28.107Z" transform="translate(-522.078 -200.512)" fill="#6b96bb"></path>
    <path id="Path_238-3" data-name="Path 238" d="M616.809,620.014l-95.373-26.577,5.544-17.458,94.15,28.414Z" transform="translate(-521.436 -256.545)" fill="#6b96bb"></path>
    <path id="Path_239-2" data-name="Path 239" d="M616.5,811.15l-93.843-27.6,4.882-17.662L621.69,794.1Z" transform="translate(-522.15 -367.309)" fill="#6b96bb"></path>
    <path id="Path_240-3" data-name="Path 240" d="M615.718,717.66l-93.792-27.751,5.188-17.662,94.149,28.209Z" transform="translate(-521.722 -312.693)" fill="#6b96bb"></path>
    <path id="Path_236-4" data-name="Path 236" d="M616.34,428.342l-94.659-27.648,5.544-17.714,93.843,28.21Z" transform="translate(-521.579 -342.98)" fill="#6b96bb"></path>
    <path id="Path_241" data-name="Path 241" d="M616.34,428.342l-94.659-27.648,5.544-17.714,93.843,28.21Z" transform="translate(-521.681 -382.98)" fill="#6b96bb"></path>
    <path id="Path_237-4" data-name="Path 237" d="M616.38,525.167l-93.843-27.546,4.678-17.713,94.506,28.107Z" transform="translate(-522.078 -399.512)" fill="#6b96bb"></path>
    <path id="Path_238-4" data-name="Path 238" d="M616.809,620.014l-95.373-26.577,5.544-17.458,94.15,28.414Z" transform="translate(-521.436 -455.545)" fill="#6b96bb"></path>
    <path id="Path_239-3" data-name="Path 239" d="M616.5,811.15l-93.843-27.6,4.882-17.662L621.69,794.1Z" transform="translate(-522.15 -566.309)" fill="#6b96bb"></path>
    <path id="Path_240-4" data-name="Path 240" d="M615.718,717.66l-93.792-27.751,5.188-17.662,94.149,28.209Z" transform="translate(-521.722 -511.693)" fill="#6b96bb"></path>
    <path id="Path_236-5" data-name="Path 236" d="M616.34,428.342l-94.659-27.648,5.544-17.714,93.843,28.21Z" transform="translate(-521.579 453.019)" fill="#6b96bb"></path>
    <path id="Path_237-5" data-name="Path 237" d="M616.38,525.167l-93.843-27.546,4.678-17.713,94.506,28.107Z" transform="translate(-522.078 396.488)" fill="#6b96bb"></path>
    <path id="Path_238-5" data-name="Path 238" d="M616.809,620.014l-95.373-26.577,5.544-17.458,94.15,28.414Z" transform="translate(-521.436 340.454)" fill="#6b96bb"></path>
  </g>
</svg>
