<?xml version="1.0" encoding="UTF-8"?>
<svg xmlns="http://www.w3.org/2000/svg" width="100" height="1556.681" viewBox="0 0 100 1556.681">
  <g id="Group_164" data-name="Group 164" transform="translate(-1770 -2787)" opacity="0.15">
    <path id="Path_235" data-name="Path 235" d="M528.46,332.916l93.333-27.954-4.983-17.2-94.761,28.72Z" transform="translate(1247.952 2935.082)" fill="#7f8384"></path>
    <path id="Path_236" data-name="Path 236" d="M526.409,428.342l94.659-27.648-5.544-17.714-93.843,28.21Z" transform="translate(1248.83 2879.545)" fill="#7f8384"></path>
    <path id="Path_237" data-name="Path 237" d="M527.878,525.168l93.843-27.546-4.678-17.713-94.506,28.107Z" transform="translate(1247.82 2823.013)" fill="#7f8384"></path>
    <path id="Path_238" data-name="Path 238" d="M525.756,620.014l95.373-26.577-5.544-17.458-94.15,28.414Z" transform="translate(1248.87 2766.98)" fill="#7f8384"></path>
    <path id="Path_239" data-name="Path 239" d="M527.847,811.15l93.843-27.6-4.882-17.662L522.66,794.1Z" transform="translate(1247.8 2656.216)" fill="#7f8384"></path>
    <path id="Path_240" data-name="Path 240" d="M527.471,717.66l93.792-27.751-5.187-17.662-94.149,28.209Z" transform="translate(1248.533 2710.832)" fill="#7f8384"></path>
    <path id="Path_236-2" data-name="Path 236" d="M526.409,428.342l94.659-27.648-5.544-17.714-93.843,28.21Z" transform="translate(1248.83 3079.045)" fill="#7f8384"></path>
    <path id="Path_237-2" data-name="Path 237" d="M527.878,525.168l93.843-27.546-4.678-17.713-94.506,28.107Z" transform="translate(1247.82 3022.513)" fill="#7f8384"></path>
    <path id="Path_238-2" data-name="Path 238" d="M525.756,620.014l95.373-26.577-5.544-17.458-94.15,28.414Z" transform="translate(1248.87 2966.48)" fill="#7f8384"></path>
    <path id="Path_240-2" data-name="Path 240" d="M527.471,717.66l93.792-27.751-5.187-17.662-94.149,28.209Z" transform="translate(1248.533 2910.332)" fill="#7f8384"></path>
    <path id="Path_236-3" data-name="Path 236" d="M526.409,428.342l94.659-27.648-5.544-17.714-93.843,28.21Z" transform="translate(1248.83 2643.02)" fill="#7f8384"></path>
    <path id="Path_237-3" data-name="Path 237" d="M527.878,525.168l93.843-27.546-4.678-17.713-94.506,28.107Z" transform="translate(1247.82 2586.488)" fill="#7f8384"></path>
    <path id="Path_238-3" data-name="Path 238" d="M525.756,620.014l95.373-26.577-5.544-17.458-94.15,28.414Z" transform="translate(1248.87 2530.455)" fill="#7f8384"></path>
    <path id="Path_239-2" data-name="Path 239" d="M527.847,811.15l93.843-27.6-4.882-17.662L522.66,794.1Z" transform="translate(1247.8 2419.691)" fill="#7f8384"></path>
    <path id="Path_240-3" data-name="Path 240" d="M527.471,717.66l93.792-27.751-5.187-17.662-94.149,28.209Z" transform="translate(1248.533 2474.307)" fill="#7f8384"></path>
    <path id="Path_236-4" data-name="Path 236" d="M526.409,428.342l94.659-27.648-5.544-17.714-93.843,28.21Z" transform="translate(1248.83 2444.02)" fill="#7f8384"></path>
    <path id="Path_241" data-name="Path 241" d="M526.409,428.342l94.659-27.648-5.544-17.714-93.843,28.21Z" transform="translate(1248.932 2404.02)" fill="#7f8384"></path>
    <path id="Path_237-4" data-name="Path 237" d="M527.878,525.168l93.843-27.546-4.678-17.713-94.506,28.107Z" transform="translate(1247.82 2387.488)" fill="#7f8384"></path>
    <path id="Path_238-4" data-name="Path 238" d="M525.756,620.014l95.373-26.577-5.544-17.458-94.15,28.414Z" transform="translate(1248.87 2331.455)" fill="#7f8384"></path>
    <path id="Path_239-3" data-name="Path 239" d="M527.847,811.15l93.843-27.6-4.882-17.662L522.66,794.1Z" transform="translate(1247.8 2220.691)" fill="#7f8384"></path>
    <path id="Path_240-4" data-name="Path 240" d="M527.471,717.66l93.792-27.751-5.187-17.662-94.149,28.209Z" transform="translate(1248.533 2275.307)" fill="#7f8384"></path>
    <path id="Path_235-2" data-name="Path 235" d="M528.46,332.916l93.333-27.954-4.983-17.2-94.761,28.72Z" transform="translate(1247.952 3731.082)" fill="#7f8384"></path>
    <path id="Path_236-5" data-name="Path 236" d="M526.409,428.342l94.659-27.648-5.544-17.714-93.843,28.21Z" transform="translate(1248.83 3675.545)" fill="#7f8384"></path>
    <path id="Path_237-5" data-name="Path 237" d="M527.878,525.168l93.843-27.546-4.678-17.713-94.506,28.107Z" transform="translate(1247.82 3619.013)" fill="#7f8384"></path>
    <path id="Path_238-5" data-name="Path 238" d="M525.756,620.014l95.373-26.577-5.544-17.458-94.15,28.414Z" transform="translate(1248.87 3562.98)" fill="#7f8384"></path>
    <path id="Path_239-4" data-name="Path 239" d="M527.847,811.15l93.843-27.6-4.882-17.662L522.66,794.1Z" transform="translate(1247.8 3452.216)" fill="#7f8384"></path>
    <path id="Path_240-5" data-name="Path 240" d="M527.471,717.66l93.792-27.751-5.187-17.662-94.149,28.209Z" transform="translate(1248.533 3506.832)" fill="#7f8384"></path>
    <path id="Path_236-6" data-name="Path 236" d="M526.409,428.342l94.659-27.648-5.544-17.714-93.843,28.21Z" transform="translate(1248.83 3875.045)" fill="#7f8384"></path>
    <path id="Path_237-6" data-name="Path 237" d="M527.878,525.168l93.843-27.546-4.678-17.713-94.506,28.107Z" transform="translate(1247.82 3818.513)" fill="#7f8384"></path>
    <path id="Path_236-7" data-name="Path 236" d="M526.409,428.342l94.659-27.648-5.544-17.714-93.843,28.21Z" transform="translate(1248.83 3439.02)" fill="#7f8384"></path>
    <path id="Path_237-7" data-name="Path 237" d="M527.878,525.168l93.843-27.546-4.678-17.713-94.506,28.107Z" transform="translate(1247.82 3382.488)" fill="#7f8384"></path>
    <path id="Path_238-6" data-name="Path 238" d="M525.756,620.014l95.373-26.577-5.544-17.458-94.15,28.414Z" transform="translate(1248.87 3326.455)" fill="#7f8384"></path>
    <path id="Path_239-5" data-name="Path 239" d="M527.847,811.15l93.843-27.6-4.882-17.662L522.66,794.1Z" transform="translate(1247.8 3215.691)" fill="#7f8384"></path>
    <path id="Path_240-6" data-name="Path 240" d="M527.471,717.66l93.792-27.751-5.187-17.662-94.149,28.209Z" transform="translate(1248.533 3270.307)" fill="#7f8384"></path>
    <path id="Path_236-8" data-name="Path 236" d="M526.409,428.342l94.659-27.648-5.544-17.714-93.843,28.21Z" transform="translate(1248.83 3240.02)" fill="#7f8384"></path>
    <path id="Path_237-8" data-name="Path 237" d="M527.878,525.168l93.843-27.546-4.678-17.713-94.506,28.107Z" transform="translate(1247.82 3183.488)" fill="#7f8384"></path>
    <path id="Path_238-7" data-name="Path 238" d="M525.756,620.014l95.373-26.577-5.544-17.458-94.15,28.414Z" transform="translate(1248.87 3127.455)" fill="#7f8384"></path>
    <path id="Path_239-6" data-name="Path 239" d="M527.847,811.15l93.843-27.6-4.882-17.662L522.66,794.1Z" transform="translate(1247.8 3016.691)" fill="#7f8384"></path>
    <path id="Path_240-7" data-name="Path 240" d="M527.471,717.66l93.792-27.751-5.187-17.662-94.149,28.209Z" transform="translate(1248.533 3071.307)" fill="#7f8384"></path>
  </g>
</svg>
