<?xml version="1.0" encoding="UTF-8"?>
<svg xmlns="http://www.w3.org/2000/svg" width="100" height="1556.681" viewBox="0 0 100 1556.681">
  <g id="Group_165" data-name="Group 165" opacity="0.15">
    <path id="Path_235" data-name="Path 235" d="M615.381,332.916l-93.333-27.954,4.983-17.2,94.762,28.72Z" transform="translate(-521.793 148.082)" fill="#7f8384"></path>
    <path id="Path_236" data-name="Path 236" d="M616.34,428.342l-94.659-27.648,5.544-17.714,93.843,28.21Z" transform="translate(-521.579 92.545)" fill="#7f8384"></path>
    <path id="Path_237" data-name="Path 237" d="M616.381,525.168l-93.843-27.546,4.678-17.713,94.506,28.107Z" transform="translate(-522.078 36.013)" fill="#7f8384"></path>
    <path id="Path_238" data-name="Path 238" d="M616.809,620.014l-95.374-26.577,5.544-17.458,94.15,28.414Z" transform="translate(-521.436 -20.02)" fill="#7f8384"></path>
    <path id="Path_239" data-name="Path 239" d="M616.5,811.15l-93.843-27.6,4.882-17.662L621.69,794.1Z" transform="translate(-522.15 -130.784)" fill="#7f8384"></path>
    <path id="Path_240" data-name="Path 240" d="M615.718,717.66l-93.792-27.751,5.188-17.662,94.149,28.209Z" transform="translate(-521.722 -76.168)" fill="#7f8384"></path>
    <path id="Path_236-2" data-name="Path 236" d="M616.34,428.342l-94.659-27.648,5.544-17.714,93.843,28.21Z" transform="translate(-521.579 292.045)" fill="#7f8384"></path>
    <path id="Path_237-2" data-name="Path 237" d="M616.381,525.168l-93.843-27.546,4.678-17.713,94.506,28.107Z" transform="translate(-522.078 235.513)" fill="#7f8384"></path>
    <path id="Path_238-2" data-name="Path 238" d="M616.809,620.014l-95.374-26.577,5.544-17.458,94.15,28.414Z" transform="translate(-521.436 179.48)" fill="#7f8384"></path>
    <path id="Path_240-2" data-name="Path 240" d="M615.718,717.66l-93.792-27.751,5.188-17.662,94.149,28.209Z" transform="translate(-521.722 123.332)" fill="#7f8384"></path>
    <path id="Path_236-3" data-name="Path 236" d="M616.34,428.342l-94.659-27.648,5.544-17.714,93.843,28.21Z" transform="translate(-521.579 -143.98)" fill="#7f8384"></path>
    <path id="Path_237-3" data-name="Path 237" d="M616.381,525.168l-93.843-27.546,4.678-17.713,94.506,28.107Z" transform="translate(-522.078 -200.512)" fill="#7f8384"></path>
    <path id="Path_238-3" data-name="Path 238" d="M616.809,620.014l-95.374-26.577,5.544-17.458,94.15,28.414Z" transform="translate(-521.436 -256.545)" fill="#7f8384"></path>
    <path id="Path_239-2" data-name="Path 239" d="M616.5,811.15l-93.843-27.6,4.882-17.662L621.69,794.1Z" transform="translate(-522.15 -367.309)" fill="#7f8384"></path>
    <path id="Path_240-3" data-name="Path 240" d="M615.718,717.66l-93.792-27.751,5.188-17.662,94.149,28.209Z" transform="translate(-521.722 -312.693)" fill="#7f8384"></path>
    <path id="Path_236-4" data-name="Path 236" d="M616.34,428.342l-94.659-27.648,5.544-17.714,93.843,28.21Z" transform="translate(-521.579 -342.98)" fill="#7f8384"></path>
    <path id="Path_241" data-name="Path 241" d="M616.34,428.342l-94.659-27.648,5.544-17.714,93.843,28.21Z" transform="translate(-521.681 -382.98)" fill="#7f8384"></path>
    <path id="Path_237-4" data-name="Path 237" d="M616.381,525.168l-93.843-27.546,4.678-17.713,94.506,28.107Z" transform="translate(-522.078 -399.512)" fill="#7f8384"></path>
    <path id="Path_238-4" data-name="Path 238" d="M616.809,620.014l-95.374-26.577,5.544-17.458,94.15,28.414Z" transform="translate(-521.436 -455.545)" fill="#7f8384"></path>
    <path id="Path_239-3" data-name="Path 239" d="M616.5,811.15l-93.843-27.6,4.882-17.662L621.69,794.1Z" transform="translate(-522.15 -566.309)" fill="#7f8384"></path>
    <path id="Path_240-4" data-name="Path 240" d="M615.718,717.66l-93.792-27.751,5.188-17.662,94.149,28.209Z" transform="translate(-521.722 -511.693)" fill="#7f8384"></path>
    <path id="Path_235-2" data-name="Path 235" d="M615.381,332.916l-93.333-27.954,4.983-17.2,94.762,28.72Z" transform="translate(-521.793 944.082)" fill="#7f8384"></path>
    <path id="Path_236-5" data-name="Path 236" d="M616.34,428.342l-94.659-27.648,5.544-17.714,93.843,28.21Z" transform="translate(-521.579 888.545)" fill="#7f8384"></path>
    <path id="Path_237-5" data-name="Path 237" d="M616.381,525.168l-93.843-27.546,4.678-17.713,94.506,28.107Z" transform="translate(-522.078 832.013)" fill="#7f8384"></path>
    <path id="Path_238-5" data-name="Path 238" d="M616.809,620.014l-95.374-26.577,5.544-17.458,94.15,28.414Z" transform="translate(-521.436 775.98)" fill="#7f8384"></path>
    <path id="Path_239-4" data-name="Path 239" d="M616.5,811.15l-93.843-27.6,4.882-17.662L621.69,794.1Z" transform="translate(-522.15 665.216)" fill="#7f8384"></path>
    <path id="Path_240-5" data-name="Path 240" d="M615.718,717.66l-93.792-27.751,5.188-17.662,94.149,28.209Z" transform="translate(-521.722 719.832)" fill="#7f8384"></path>
    <path id="Path_236-6" data-name="Path 236" d="M616.34,428.342l-94.659-27.648,5.544-17.714,93.843,28.21Z" transform="translate(-521.579 1088.045)" fill="#7f8384"></path>
    <path id="Path_237-6" data-name="Path 237" d="M616.381,525.168l-93.843-27.546,4.678-17.713,94.506,28.107Z" transform="translate(-522.078 1031.513)" fill="#7f8384"></path>
    <path id="Path_236-7" data-name="Path 236" d="M616.34,428.342l-94.659-27.648,5.544-17.714,93.843,28.21Z" transform="translate(-521.579 652.02)" fill="#7f8384"></path>
    <path id="Path_237-7" data-name="Path 237" d="M616.381,525.168l-93.843-27.546,4.678-17.713,94.506,28.107Z" transform="translate(-522.078 595.488)" fill="#7f8384"></path>
    <path id="Path_238-6" data-name="Path 238" d="M616.809,620.014l-95.374-26.577,5.544-17.458,94.15,28.414Z" transform="translate(-521.436 539.455)" fill="#7f8384"></path>
    <path id="Path_239-5" data-name="Path 239" d="M616.5,811.15l-93.843-27.6,4.882-17.662L621.69,794.1Z" transform="translate(-522.15 428.691)" fill="#7f8384"></path>
    <path id="Path_240-6" data-name="Path 240" d="M615.718,717.66l-93.792-27.751,5.188-17.662,94.149,28.209Z" transform="translate(-521.722 483.307)" fill="#7f8384"></path>
    <path id="Path_236-8" data-name="Path 236" d="M616.34,428.342l-94.659-27.648,5.544-17.714,93.843,28.21Z" transform="translate(-521.579 453.02)" fill="#7f8384"></path>
    <path id="Path_237-8" data-name="Path 237" d="M616.381,525.168l-93.843-27.546,4.678-17.713,94.506,28.107Z" transform="translate(-522.078 396.488)" fill="#7f8384"></path>
    <path id="Path_238-7" data-name="Path 238" d="M616.809,620.014l-95.374-26.577,5.544-17.458,94.15,28.414Z" transform="translate(-521.436 340.455)" fill="#7f8384"></path>
    <path id="Path_239-6" data-name="Path 239" d="M616.5,811.15l-93.843-27.6,4.882-17.662L621.69,794.1Z" transform="translate(-522.15 229.691)" fill="#7f8384"></path>
    <path id="Path_240-7" data-name="Path 240" d="M615.718,717.66l-93.792-27.751,5.188-17.662,94.149,28.209Z" transform="translate(-521.722 284.307)" fill="#7f8384"></path>
  </g>
</svg>
