<?xml version="1.0" encoding="UTF-8"?>
<svg xmlns="http://www.w3.org/2000/svg" width="604.98" height="555.933" viewBox="0 0 604.98 555.933">
  <g id="Header_Icon_update_Homepage_Graphic" data-name="Header Icon update_Homepage Graphic" transform="translate(0 0.053)">
    <g id="Group_60" data-name="Group 60" transform="translate(52.328 172.633)">
      <g id="Group_59" data-name="Group 59">
        <path id="Path_141" data-name="Path 141" d="M87.68,119.447H85.175V125.2h1.179a7.077,7.077,0,0,1,7.075,7.075V187.4a7.077,7.077,0,0,1-7.075,7.075H47.734a7.077,7.077,0,0,1-7.075-7.075V132.124a7.077,7.077,0,0,1,7.075-7.075h1.179V119.3H46.408A10.883,10.883,0,0,0,35.5,130.208v58.666a10.883,10.883,0,0,0,10.908,10.908H87.68a10.883,10.883,0,0,0,10.908-10.908V130.208A10.759,10.759,0,0,0,87.68,119.447Z" transform="translate(-35.5 -116.057)" fill="#f7f5f4"></path>
        <path id="Path_142" data-name="Path 142" d="M75.843,120.49s.147-3.39-6.633-3.39c-3.538,0-6.486,1.474-6.486,3.243v.147H60.514v-.147c0-1.769-2.948-3.243-6.486-3.243-6.633,0-6.928,3.39-6.928,3.39v5.749H75.7V120.49Z" transform="translate(-30.001 -117.1)" fill="#f7f5f4"></path>
      </g>
      <path id="Path_143" data-name="Path 143" d="M54.892,131.5H43.1v11.792H54.892Zm-2.653,9.286H45.606v-6.633h6.633Z" transform="translate(-31.897 -110.274)" fill="#f7f5f4"></path>
      <path id="Path_144" data-name="Path 144" d="M54.892,142H43.1v11.792H54.892Zm-2.653,9.286H45.606v-6.633h6.633Z" transform="translate(-31.897 -105.297)" fill="#f7f5f4"></path>
      <path id="Path_145" data-name="Path 145" d="M43.1,164.292H54.892V152.5H43.1Zm2.653-9.139h6.633v6.633H45.753Z" transform="translate(-31.897 -100.32)" fill="#f7f5f4"></path>
      <rect id="Rectangle_48" data-name="Rectangle 48" width="22.11" height="2.653" transform="translate(26.827 21.226)" fill="#f7f5f4"></rect>
      <rect id="Rectangle_49" data-name="Rectangle 49" width="16.362" height="2.653" transform="translate(26.827 25.058)" fill="#f7f5f4"></rect>
      <rect id="Rectangle_50" data-name="Rectangle 50" width="22.11" height="2.653" transform="translate(26.827 36.851)" fill="#f7f5f4"></rect>
      <rect id="Rectangle_51" data-name="Rectangle 51" width="16.362" height="2.653" transform="translate(26.827 40.683)" fill="#f7f5f4"></rect>
      <rect id="Rectangle_52" data-name="Rectangle 52" width="16.362" height="2.653" transform="translate(26.827 44.516)" fill="#f7f5f4"></rect>
      <rect id="Rectangle_53" data-name="Rectangle 53" width="22.11" height="2.653" transform="translate(26.827 52.18)" fill="#f7f5f4"></rect>
      <rect id="Rectangle_54" data-name="Rectangle 54" width="16.362" height="2.653" transform="translate(26.827 56.013)" fill="#f7f5f4"></rect>
      <rect id="Rectangle_55" data-name="Rectangle 55" width="12.234" height="2.653" transform="translate(26.827 59.845)" fill="#f7f5f4"></rect>
    </g>
    <g id="Group_91" data-name="Group 91" transform="translate(0 -0.053)">
      <g id="Group_68" data-name="Group 68" transform="translate(163.3 76.138)">
        <g id="Group_67" data-name="Group 67">
          <g id="Group_66" data-name="Group 66">
            <g id="Group_61" data-name="Group 61" transform="translate(244.473 11.164)">
              <path id="Path_146" data-name="Path 146" d="M307.809,75.574a.541.541,0,0,1-.442-.147A173.8,173.8,0,0,0,277,60.981a.932.932,0,0,1,.59-1.769,194.743,194.743,0,0,1,30.66,14.593.8.8,0,0,1,.295,1.179A.752.752,0,0,1,307.809,75.574Z" transform="translate(-276.374 -59.174)" fill="#f7f5f4"></path>
            </g>
            <g id="Group_62" data-name="Group 62" transform="translate(112.973)">
              <path id="Path_147" data-name="Path 147" d="M188.1,66.782a.917.917,0,0,1-.884-.59.928.928,0,0,1,.442-1.179A179,179,0,0,1,255.613,51.6h0a.884.884,0,0,1,0,1.769A178.114,178.114,0,0,0,188.4,66.782Z" transform="translate(-187.162 -51.6)" fill="#f7f5f4"></path>
            </g>
            <g id="Group_63" data-name="Group 63" transform="translate(0 167.449)">
              <path id="Path_148" data-name="Path 148" d="M188.172,329.7a.541.541,0,0,1-.442-.147,186.46,186.46,0,0,1-42.6-42.157,182.8,182.8,0,0,1-34.05-121.312.884.884,0,1,1,1.769,0A180.427,180.427,0,0,0,146.6,286.217a182.613,182.613,0,0,0,42.157,41.715.779.779,0,0,1,.147,1.179C188.614,329.554,188.319,329.7,188.172,329.7Z" transform="translate(-110.52 -165.2)" fill="#f7f5f4"></path>
            </g>
            <g id="Group_64" data-name="Group 64" transform="translate(159.726 361.431)">
              <path id="Path_149" data-name="Path 149" d="M241.757,300.632a185.4,185.4,0,0,1-22.11-1.327.9.9,0,0,1,.295-1.769,178.617,178.617,0,0,0,49.38-.737,1.109,1.109,0,0,1,1.032.737c.147.442-.295.884-.737,1.032A193.686,193.686,0,0,1,241.757,300.632Z" transform="translate(-218.88 -296.8)" fill="#f7f5f4"></path>
            </g>
            <g id="Group_65" data-name="Group 65" transform="translate(261.26 260.552)">
              <path id="Path_150" data-name="Path 150" d="M288.555,314.8a.811.811,0,0,1-.737-.442.928.928,0,0,1,.442-1.179,198.669,198.669,0,0,0,26.827-16.067,181.239,181.239,0,0,0,57.045-68.247.891.891,0,1,1,1.621.737,183.452,183.452,0,0,1-57.634,68.837,186.931,186.931,0,0,1-26.975,16.214C288.85,314.648,288.7,314.8,288.555,314.8Z" transform="translate(-287.763 -228.363)" fill="#f7f5f4"></path>
            </g>
          </g>
        </g>
      </g>
      <g id="Group_89" data-name="Group 89" transform="translate(179.402 88.225)">
        <g id="Group_88" data-name="Group 88">
          <g id="Group_69" data-name="Group 69" transform="translate(21.765 245.867)">
            <path id="Path_151" data-name="Path 151" d="M138.853,226.6l-2.653,1.474c.884,1.474,1.769,3.1,2.653,4.57l2.653-1.621Z" transform="translate(-136.2 -226.6)" fill="#f7f5f4"></path>
          </g>
          <g id="Group_70" data-name="Group 70" transform="translate(127.453 2.506)">
            <path id="Path_152" data-name="Path 152" d="M218.218,61.5c-3.39.59-6.928,1.327-10.318,2.211l.737,2.948c3.39-.737,6.781-1.474,10.171-2.064Z" transform="translate(-207.9 -61.5)" fill="#f7f5f4"></path>
          </g>
          <g id="Group_71" data-name="Group 71" transform="translate(26.629 67.658)">
            <path id="Path_153" data-name="Path 153" d="M145.544,105.7c-2.064,2.8-4.127,5.749-6.044,8.7l2.653,1.621c1.916-2.948,3.832-5.749,5.9-8.549Z" transform="translate(-139.5 -105.7)" fill="#f7f5f4"></path>
          </g>
          <g id="Group_72" data-name="Group 72" transform="translate(39.158 51.443)">
            <path id="Path_154" data-name="Path 154" d="M155.075,94.7c-2.358,2.506-4.864,5.159-7.075,7.812l2.358,1.916c2.211-2.653,4.569-5.159,6.928-7.665Z" transform="translate(-148 -94.7)" fill="#f7f5f4"></path>
          </g>
          <g id="Group_73" data-name="Group 73" transform="translate(70.113 24.911)">
            <path id="Path_155" data-name="Path 155" d="M177.844,76.7c-2.948,1.916-5.9,3.832-8.844,5.9l1.769,2.506c2.8-2.064,5.749-3.98,8.7-5.749Z" transform="translate(-169 -76.7)" fill="#f7f5f4"></path>
          </g>
          <g id="Group_74" data-name="Group 74" transform="translate(107.258 7.37)">
            <path id="Path_156" data-name="Path 156" d="M204.223,64.8c-3.39,1.032-6.633,2.211-10.023,3.39l1.032,2.8c3.243-1.179,6.486-2.358,9.729-3.39Z" transform="translate(-194.2 -64.8)" fill="#f7f5f4"></path>
          </g>
          <g id="Group_75" data-name="Group 75" transform="translate(88.096 14.888)">
            <path id="Path_157" data-name="Path 157" d="M190.634,69.9c-3.243,1.474-6.338,3.1-9.434,4.717l1.474,2.653c3.1-1.621,6.191-3.243,9.286-4.569Z" transform="translate(-181.2 -69.9)" fill="#f7f5f4"></path>
          </g>
          <g id="Group_76" data-name="Group 76" transform="translate(53.751 37.145)">
            <path id="Path_158" data-name="Path 158" d="M165.86,85c-2.653,2.211-5.454,4.569-7.96,6.928l2.064,2.211c2.506-2.358,5.159-4.569,7.812-6.781Z" transform="translate(-157.9 -85)" fill="#f7f5f4"></path>
          </g>
          <g id="Group_77" data-name="Group 77" transform="translate(12.626 227.147)">
            <path id="Path_159" data-name="Path 159" d="M132.8,213.9l-2.8,1.179c1.327,3.243,2.8,6.486,4.275,9.729l2.8-1.327C135.454,220.238,134.127,217.143,132.8,213.9Z" transform="translate(-130 -213.9)" fill="#f7f5f4"></path>
          </g>
          <g id="Group_78" data-name="Group 78" transform="translate(0 104.214)">
            <path id="Path_160" data-name="Path 160" d="M128.754,239.725c1.327,4.569,2.948,8.992,4.569,13.414l2.8-1.179c-1.032-2.8-2.064-5.454-3.1-8.255h0c-.59-1.621-1.032-3.243-1.474-4.864,0-.147-.147-.295-.147-.442-.442-1.474-.884-2.948-1.327-4.57-.884-3.39-1.769-6.781-2.358-10.318h0c-.59-3.39-1.179-6.781-1.621-10.171h0c-.442-3.538-.737-6.928-1.032-10.466-.147-1.621-.147-3.243-.295-4.864v-.295c0-1.769-.147-3.39-.147-5.159h0c0-2.8,0-5.749.147-8.7,0-.737.147-1.474.147-2.211a3.246,3.246,0,0,1,.147-1.179,5.015,5.015,0,0,1,.147-1.474,3.245,3.245,0,0,1,.147-1.179c0-.59.147-1.032.147-1.621a2.509,2.509,0,0,1,.147-1.032c0-.59.147-1.179.147-1.769a1.87,1.87,0,0,1,.147-.884c.442-3.832,1.032-7.518,1.769-11.35.295-1.474.59-3.1.884-4.57V156.3c.295-1.474.737-3.1,1.032-4.569q1.327-5.306,3.1-10.613c1.032-3.243,2.211-6.338,3.39-9.434l-2.8-1.179c-1.179,2.948-2.211,6.043-3.243,8.992h0c0,.147-.147.442-.147.59s0,.147-.147.295h0c-1.032,3.39-2.064,6.781-2.948,10.171h0c-.147.737-.295,1.327-.442,2.064,0,.147,0,.295-.147.295-.59,2.653-1.179,5.307-1.621,7.812h0c-.59,3.39-1.179,6.928-1.621,10.466h0a.886.886,0,0,1-.147.59c0,.295-.147.59-.147,1.032,0,.59-.147,1.179-.147,1.621s-.147.737-.147,1.179-.147,1.032-.147,1.474a2.873,2.873,0,0,1-.147,1.179c0,.442-.147,1.032-.147,1.474a3.246,3.246,0,0,1-.147,1.179v.59h0a7.176,7.176,0,0,1-.147,1.769c-.295,4.717-.295,9.434-.147,14v.147c0,1.621.147,3.39.295,5.012v.147h0a170.531,170.531,0,0,0,5.012,31.249h0v.147c.442,1.474.884,3.1,1.327,4.57C128.754,239.43,128.754,239.578,128.754,239.725Z" transform="translate(-121.434 -130.5)" fill="#f7f5f4"></path>
          </g>
          <g id="Group_79" data-name="Group 79" transform="translate(16.458 85.493)">
            <path id="Path_161" data-name="Path 161" d="M137.464,117.8c-1.769,3.1-3.39,6.191-4.864,9.434l2.8,1.327c1.474-3.1,3.1-6.191,4.717-9.286Z" transform="translate(-132.6 -117.8)" fill="#f7f5f4"></path>
          </g>
          <g id="Group_80" data-name="Group 80" transform="translate(148.384 0.147)">
            <path id="Path_162" data-name="Path 162" d="M232.566,59.9c-3.538.147-7.075.442-10.466.737l.295,3.1c3.39-.442,6.928-.59,10.318-.737Z" transform="translate(-222.1 -59.9)" fill="#f7f5f4"></path>
          </g>
          <g id="Group_81" data-name="Group 81" transform="translate(169.462)">
            <path id="Path_163" data-name="Path 163" d="M241.706,59.947c-1.769-.147-3.538-.147-5.306-.147v3.1c1.769,0,3.538.147,5.159.147Z" transform="translate(-236.4 -59.8)" fill="#f7f5f4"></path>
          </g>
          <g id="Group_82" data-name="Group 82" transform="translate(267.043 35.377)">
            <path id="Path_164" data-name="Path 164" d="M308.643,87.19c-1.327-1.179-2.8-2.211-4.127-3.39L302.6,86.158c1.327,1.032,2.653,2.211,4.127,3.243Z" transform="translate(-302.6 -83.8)" fill="#f7f5f4"></path>
          </g>
          <g id="Group_83" data-name="Group 83" transform="translate(295.786 255.743)">
            <path id="Path_165" data-name="Path 165" d="M325.49,238.017a11.128,11.128,0,0,1-1.621,2.064c-.59.737-1.179,1.621-1.769,2.358l2.506,1.916a2.035,2.035,0,0,0,.442-.59h0a16.68,16.68,0,0,1,1.474-1.916c.442-.737,1.032-1.327,1.474-2.064a19.2,19.2,0,0,0,1.474-2.211,21.555,21.555,0,0,0,1.327-1.916h0c.147-.147.295-.442.442-.59l-2.506-1.769c-.59.884-1.179,1.621-1.769,2.506S325.933,237.427,325.49,238.017Z" transform="translate(-322.1 -233.3)" fill="#f7f5f4"></path>
          </g>
          <g id="Group_84" data-name="Group 84" transform="translate(278.835 45.695)">
            <path id="Path_166" data-name="Path 166" d="M348.482,273.874c-1.474,3.39-2.948,6.633-4.569,9.876l-2.211,4.422c-.295.442-.442.884-.737,1.327-.59,1.179-1.179,2.211-1.916,3.39l2.653,1.474c.147-.295.295-.442.442-.737h0c.59-1.032,1.032-1.916,1.621-2.948.147-.442.442-.737.59-1.179a.144.144,0,0,1,.147-.147h0c.737-1.474,1.474-2.8,2.211-4.275v-.147h0c1.621-3.1,3.1-6.338,4.422-9.581h0c0-.147.147-.295.147-.442l1.769-4.422v-.147a162.824,162.824,0,0,0,9.286-35.671h0v-.442c.147-.59.147-1.327.295-1.916l.442-3.1c0-.442.147-1.032.147-1.474a28.775,28.775,0,0,0,.295-3.39h0c.147-1.621.295-3.39.295-5.012.147-1.769.147-3.685.147-5.454h0V203.268h0c-.147-3.538-.442-7.075-.884-10.466h0c-.442-3.538-.884-6.928-1.474-10.466h0c-.59-3.538-1.327-6.928-2.211-10.318h0c-.884-3.39-1.769-6.781-2.8-10.171h0c-1.032-3.39-2.211-6.633-3.39-10.023h0c-1.179-3.243-2.653-6.486-4.127-9.729h0c-1.474-3.243-3.1-6.338-4.717-9.434h0c-1.179-2.211-2.358-4.275-3.685-6.486h0c-.59-.884-1.032-1.769-1.621-2.653h0c-1.916-2.948-3.832-5.9-5.9-8.844h0a21.662,21.662,0,0,0-1.474-1.916c-.442-.59-.737-1.032-1.179-1.621-.442-.737-1.032-1.327-1.474-2.064-.442-.59-1.032-1.327-1.474-1.916-.295-.295-.442-.59-.737-.884h0c-2.211-2.653-4.569-5.454-6.928-7.96h0c-.147-.147-.147-.295-.295-.295a2.034,2.034,0,0,1-.442-.59c-.884-.884-1.769-1.769-2.653-2.8l-.147-.147-2.8-2.8-.295-.295h0l-.59-.59L310.6,93.011l.884.884c.884.884,1.916,1.769,2.8,2.8l.147.147,2.653,2.653.442.442c2.653,2.948,5.307,5.9,7.812,8.992a21.665,21.665,0,0,1,1.474,1.916,17.891,17.891,0,0,1,1.474,2.064c.295.442.737,1.032,1.032,1.474q4.643,6.412,8.844,13.266h0a161.3,161.3,0,0,1,22.7,77.239v7.075c0,2.358,0,4.569-.147,6.928-.147,1.916-.295,3.685-.442,5.6-.147,1.474-.295,2.8-.442,4.275a1.869,1.869,0,0,1-.147.884,42.543,42.543,0,0,1-.59,4.275c-.442,3.538-1.179,7.075-1.769,10.466h0l-1.769,7.518c-.295.884-.442,1.769-.737,2.506h0c-.884,3.39-1.916,6.633-3.1,9.876h0l-1.769,4.864v.147A13.881,13.881,0,0,1,348.482,273.874Z" transform="translate(-310.6 -90.8)" fill="#f7f5f4"></path>
          </g>
          <g id="Group_85" data-name="Group 85" transform="translate(89.57 310.43)">
            <path id="Path_167" data-name="Path 167" d="M183.674,270.4l-1.474,2.653c3.1,1.621,6.338,3.1,9.434,4.569l1.179-2.8C189.865,273.5,186.769,272.021,183.674,270.4Z" transform="translate(-182.2 -270.4)" fill="#f7f5f4"></path>
          </g>
          <g id="Group_86" data-name="Group 86" transform="translate(75.862 302.47)">
            <path id="Path_168" data-name="Path 168" d="M174.521,265l-1.621,2.506a47.259,47.259,0,0,0,4.569,2.8l1.621-2.653A28.349,28.349,0,0,1,174.521,265Z" transform="translate(-172.9 -265)" fill="#f7f5f4"></path>
          </g>
          <g id="Group_87" data-name="Group 87" transform="translate(107.553 310.724)">
            <path id="Path_169" data-name="Path 169" d="M321.019,274.138c-.737.295-1.621.737-2.358,1.032A161.279,161.279,0,0,1,265.6,288.288H265.3c-1.474.147-2.948.147-4.275.295h-1.032q-7.3.221-14.593,0a31.026,31.026,0,0,1-3.685-.295,2.874,2.874,0,0,1-1.179-.147c-.737,0-1.621-.147-2.358-.147-3.832-.295-7.518-.884-11.35-1.474-1.474-.295-2.948-.442-4.422-.737-.295,0-.59-.147-.884-.147-1.327-.295-2.8-.59-4.127-.884-3.685-.884-7.223-1.769-10.76-2.8l-3.98-1.327c-.295-.147-.442-.147-.737-.295-1.474-.442-2.8-1.032-4.275-1.474l-2.211-.884-1.032,2.8c.59.295,1.179.442,1.916.737h0c.147,0,.295.147.442.147,1.474.59,2.8,1.032,4.275,1.474.295.147.59.147.737.295l3.98,1.327c.147,0,.295.147.442.147h0q5.085,1.548,10.171,2.653h0c.884.147,1.916.442,2.8.59.295,0,.442.147.737.147l2.211.442c.295,0,.737.147,1.032.147a9.952,9.952,0,0,0,2.064.295c.295,0,.737.147,1.032.147a.886.886,0,0,1,.59.147h0c3.538.59,6.928,1.032,10.466,1.327h.59c.884.147,1.769.147,2.653.295a3.246,3.246,0,0,1,1.179.147c1.179.147,2.506.147,3.685.295h0a12.677,12.677,0,0,1,2.358.147h0q5.306.221,10.613,0h0c3.538-.147,7.075-.295,10.466-.59h0c3.538-.295,6.928-.737,10.466-1.327h0c3.39-.59,6.928-1.179,10.318-1.916h0q5.085-1.105,10.171-2.653h0c3.39-1.032,6.781-2.064,10.023-3.243h0c3.243-1.179,6.633-2.506,9.876-3.832h0c.147,0,.295-.147.442-.147a19.192,19.192,0,0,0,2.506-1.179,14.881,14.881,0,0,0,2.211-1.032c.147,0,.295-.147.442-.147,1.032-.442,1.916-1.032,2.948-1.474a3.7,3.7,0,0,0,1.032-.59h0c.147,0,.147-.147.295-.147l-1.474-2.8c-.442.147-.884.442-1.327.59-1.032.59-2.211,1.032-3.243,1.621S321.756,273.7,321.019,274.138Z" transform="translate(-194.4 -270.6)" fill="#f7f5f4"></path>
          </g>
        </g>
      </g>
      <path id="Path_170" data-name="Path 170" d="M87.055,86.029a.86.86,0,0,0-1.474-.884c-2.358,3.98-4.569,7.96-6.781,12.087.59.147,1.179.442,1.621.59C82.632,93.841,84.843,89.861,87.055,86.029Z" transform="translate(37.473 40.226)" fill="#f7f5f4"></path>
      <path id="Path_171" data-name="Path 171" d="M81.17,95.99c-.59-.147-1.179-.442-1.621-.59-2.064,3.98-3.832,7.812-5.749,11.94.59.147,1.179.442,1.621.59Q78.3,101.738,81.17,95.99Z" transform="translate(34.983 45.3)" fill="#f7f5f4"></path>
      <path id="Path_172" data-name="Path 172" d="M68.344,236.415c.442-.147,1.032.147,1.032.59q3.98,13.708,9.286,26.975a.658.658,0,0,0,0-.737A251.938,251.938,0,0,1,61.269,194.7H59.5a256.809,256.809,0,0,0,8.255,42.157C67.9,236.562,68.049,236.415,68.344,236.415Z" transform="translate(28.204 92.371)" fill="#f7f5f4"></path>
      <path id="Path_173" data-name="Path 173" d="M426.409,277.079a.78.78,0,0,1-.147-1.179h0a1.117,1.117,0,0,0-.59.295,260.7,260.7,0,0,1-59.4,59.993A256.483,256.483,0,0,1,275.321,377.9a21.09,21.09,0,0,1-1.621,2.211c3.39-.737,6.78-1.621,10.171-2.506,2.653-.737,5.306-1.474,7.96-2.358a4.414,4.414,0,0,1,.59-1.179l.147-.295,1.474.737a256.952,256.952,0,0,0,73.112-37A261.006,261.006,0,0,0,427,277.227h-.147A.728.728,0,0,1,426.409,277.079Z" transform="translate(130.356 130.861)" fill="#f7f5f4"></path>
      <path id="Path_174" data-name="Path 174" d="M408.7,196.879c0-.295.147-.737.147-1.179,0,.442-.147.737-.147,1.179Z" transform="translate(194.35 92.845)" fill="#f7f5f4"></path>
      <path id="Path_175" data-name="Path 175" d="M409.221,168.795a253.1,253.1,0,0,1-1.621,39.5.9.9,0,0,1,1.769.295A259.929,259.929,0,0,0,410.99,168.5,7.4,7.4,0,0,1,409.221,168.795Z" transform="translate(193.828 79.951)" fill="#f7f5f4"></path>
      <path id="Path_176" data-name="Path 176" d="M416.452,25.084a.515.515,0,0,0-.295-.147A259.235,259.235,0,0,0,84.649,122.959a.772.772,0,0,0,.295,1.179.542.542,0,0,0,.442.147.811.811,0,0,0,.737-.442,254.587,254.587,0,0,1,68.247-73.259A257.161,257.161,0,0,1,415.42,26.41a.908.908,0,0,0,1.032-.147c.147,0,.147-.147.147-.295C416.747,25.673,416.747,25.231,416.452,25.084Z" transform="translate(40.335 0.053)" fill="#f7f5f4"></path>
      <path id="Path_177" data-name="Path 177" d="M105.819,303.984a253.974,253.974,0,0,1-29.775-53.507Q70.737,237.21,66.757,223.5a.838.838,0,0,0-1.032-.59,2.035,2.035,0,0,0-.59.442.448.448,0,0,0,0,.59,257.82,257.82,0,0,0,39.356,80.924,268.978,268.978,0,0,0,38.325,42.452,1.117,1.117,0,0,0,.59.295c.295,0,.442-.147.737-.295a.954.954,0,0,0-.147-1.327A252.722,252.722,0,0,1,105.819,303.984Z" transform="translate(30.936 105.726)" fill="#f7f5f4"></path>
      <path id="Path_178" data-name="Path 178" d="M161.8,334.418a.891.891,0,1,0-.737,1.621,263.529,263.529,0,0,0,55.571,18.13c-.59-.737-1.032-1.474-1.621-2.211A252.982,252.982,0,0,1,161.8,334.418Z" transform="translate(76.376 158.574)" fill="#f7f5f4"></path>
      <path id="Path_179" data-name="Path 179" d="M423.094,195a1.108,1.108,0,0,0-1.032.737h0A257.615,257.615,0,0,1,377.252,314.1h0a.892.892,0,0,0,.147,1.179.542.542,0,0,0,.442.147h.147a1.117,1.117,0,0,0,.59-.295,260.1,260.1,0,0,0,44.958-117.922c0-.442.147-.737.147-1.179h0C423.831,195.442,423.536,195,423.094,195Z" transform="translate(179.366 92.513)" fill="#f7f5f4"></path>
      <g id="Group_90" data-name="Group 90" transform="translate(421.892 34.865)">
        <path id="Path_180" data-name="Path 180" d="M359.036,150.409l.147-2.358A82.826,82.826,0,0,1,297.716,111.2l-1.916,1.327A84.554,84.554,0,0,0,359.036,150.409Z" transform="translate(-281.06 17.925)" fill="#f7f5f4"></path>
        <path id="Path_181" data-name="Path 181" d="M359.467,151.383h.295l.295-3.538h-.295A81.884,81.884,0,0,1,298.3,110.995l-.147-.295-2.948,1.916.147.295A85.588,85.588,0,0,0,359.467,151.383ZM298,111.437a82.826,82.826,0,0,0,61.467,36.851l-.147,2.358a85.068,85.068,0,0,1-63.236-37.882Z" transform="translate(-281.344 17.688)" fill="#f7f5f4"></path>
        <path id="Path_182" data-name="Path 182" d="M372.5,140.556l1.179,2.064a85.249,85.249,0,0,0,34.2-37.588L405.813,104A82.514,82.514,0,0,1,372.5,140.556Z" transform="translate(-244.702 14.512)" fill="#f7f5f4"></path>
        <path id="Path_183" data-name="Path 183" d="M405.655,103.747a82.349,82.349,0,0,1-33.46,36.7l-.295.147,1.769,3.1.295-.147A86.668,86.668,0,0,0,408.9,105.369l.147-.295L405.8,103.6Zm2.506,1.474a85.249,85.249,0,0,1-34.2,37.588l-1.179-2.064A83.3,83.3,0,0,0,406.1,104.19Z" transform="translate(-244.986 14.322)" fill="#f7f5f4"></path>
        <path id="Path_184" data-name="Path 184" d="M358.29,24l-.59,2.211a83.582,83.582,0,0,1,59.4,56.75l2.211-.59A85.837,85.837,0,0,0,358.29,24Z" transform="translate(-251.718 -23.41)" fill="#f7f5f4"></path>
        <path id="Path_185" data-name="Path 185" d="M420.241,82.561A86.043,86.043,0,0,0,358.479,23.6h-.295l-.884,3.39h.295a82.4,82.4,0,0,1,59.256,56.6l.147.295,3.39-1.032Zm-2.948.59a83.443,83.443,0,0,0-59.256-56.6l.59-2.211a85.631,85.631,0,0,1,61.025,58.224Z" transform="translate(-251.907 -23.6)" fill="#f7f5f4"></path>
        <path id="Path_186" data-name="Path 186" d="M338.086,27A85.311,85.311,0,0,0,286.2,105.123h2.358a83.1,83.1,0,0,1,50.412-76.06Z" transform="translate(-285.61 -21.988)" fill="#f7f5f4"></path>
        <path id="Path_187" data-name="Path 187" d="M339.6,29.79l.295-.147L338.57,26.4l-.295.147c-1.179.59-2.506,1.032-3.685,1.621a7.9,7.9,0,0,1-1.621.737A85.778,85.778,0,0,0,285.8,105.7V106h3.538V105.7A82.24,82.24,0,0,1,335.18,31.854a7.9,7.9,0,0,1,1.621-.737C337.686,30.675,338.717,30.232,339.6,29.79Zm-50.854,75.617H286.39a85.156,85.156,0,0,1,51.886-78.123l.884,2.211A82.742,82.742,0,0,0,288.748,105.408Z" transform="translate(-285.8 -22.273)" fill="#f7f5f4"></path>
        <circle id="Ellipse_13" data-name="Ellipse 13" cx="67.805" cy="67.805" r="67.805" transform="translate(9.954 141.983) rotate(-82.628)" fill="none"></circle>
        <path id="Path_188" data-name="Path 188" d="M435.658,102.479A69.388,69.388,0,0,0,366.379,33.2a70.631,70.631,0,0,0-27.417,5.6c-.59.295-1.032.442-1.621.737a69.3,69.3,0,0,0,29.038,132.22,72.419,72.419,0,0,0,12.677-1.179,7.4,7.4,0,0,1,1.769-.295A69.408,69.408,0,0,0,435.658,102.479Zm-69.279,67.805a67.805,67.805,0,1,1,67.805-67.805A67.815,67.815,0,0,1,366.379,170.284Z" transform="translate(-280.444 -19.049)" fill="#f7f5f4"></path>
      </g>
      <path id="Path_189" data-name="Path 189" d="M189.416,350.1l-1.916,1.327a84.81,84.81,0,0,0,63.236,37.882l.147-2.358A82.309,82.309,0,0,1,189.416,350.1Z" transform="translate(89.194 166.034)" fill="#f7f5f4"></path>
      <path id="Path_190" data-name="Path 190" d="M190,349.795l-.147-.295-2.948,1.916.147.295a85.335,85.335,0,0,0,64.12,38.472h.295l.295-3.538h-.295A81.884,81.884,0,0,1,190,349.795Zm60.877,39.8a85.068,85.068,0,0,1-63.236-37.882l1.916-1.327a82.826,82.826,0,0,0,61.467,36.851Z" transform="translate(88.91 165.75)" fill="#f7f5f4"></path>
      <path id="Path_191" data-name="Path 191" d="M264.2,379.356l1.179,2.064a85.249,85.249,0,0,0,34.2-37.588l-2.064-1.032A82.514,82.514,0,0,1,264.2,379.356Z" transform="translate(125.659 162.574)" fill="#f7f5f4"></path>
      <path id="Path_192" data-name="Path 192" d="M297.355,342.547a4.413,4.413,0,0,1-.59,1.179,82.33,82.33,0,0,1-32.871,35.524l-.295.147,1.769,3.1.295-.147A86.667,86.667,0,0,0,300.6,344.169l.147-.295-1.769-.737L297.5,342.4Zm2.506,1.474a85.249,85.249,0,0,1-34.2,37.588l-1.179-2.064A83.294,83.294,0,0,0,297.8,342.99Z" transform="translate(125.375 162.384)" fill="#f7f5f4"></path>
      <path id="Path_193" data-name="Path 193" d="M308.8,321.714l2.211-.59A85.376,85.376,0,0,0,249.99,262.9l-.59,2.211A83.389,83.389,0,0,1,308.8,321.714Z" transform="translate(118.639 124.699)" fill="#f7f5f4"></path>
      <path id="Path_194" data-name="Path 194" d="M308.451,322.393l.147.295,3.39-1.032-.147-.295A86.043,86.043,0,0,0,250.079,262.4h-.295l-.884,3.39h.295A82.931,82.931,0,0,1,308.451,322.393Zm-58.224-59.256a85.631,85.631,0,0,1,61.025,58.224l-2.211.59a83.444,83.444,0,0,0-59.256-56.6Z" transform="translate(118.402 124.462)" fill="#f7f5f4"></path>
      <path id="Path_195" data-name="Path 195" d="M230.57,267.911l-.884-2.211A85.311,85.311,0,0,0,177.8,343.823h2.358A83.052,83.052,0,0,1,230.57,267.911Z" transform="translate(84.574 126.026)" fill="#f7f5f4"></path>
      <path id="Path_196" data-name="Path 196" d="M231.3,268.59l.295-.147L230.27,265.2l-.295.147A85.742,85.742,0,0,0,177.5,344.5v.295h3.538V344.5A81.917,81.917,0,0,1,231.3,268.59Zm-51,75.617h-2.358a85.156,85.156,0,0,1,51.886-78.123l.884,2.211A82.742,82.742,0,0,0,180.3,344.208Z" transform="translate(84.432 125.789)" fill="#f7f5f4"></path>
      <circle id="Ellipse_14" data-name="Ellipse 14" cx="67.805" cy="67.805" r="67.805" transform="matrix(0.01, -1, 1, 0.01, 279.32, 537.519)" fill="none"></circle>
      <path id="Path_197" data-name="Path 197" d="M327.258,341.279A69.279,69.279,0,1,0,201.671,381.52c.59.737,1.032,1.474,1.621,2.211a69.154,69.154,0,0,0,110.7-1.769c.59-.737,1.032-1.474,1.621-2.211A69.213,69.213,0,0,0,327.258,341.279Zm-69.279,67.805a67.805,67.805,0,1,1,67.805-67.805A67.815,67.815,0,0,1,257.979,409.084Z" transform="translate(89.816 129.013)" fill="#f7f5f4"></path>
      <path id="Path_198" data-name="Path 198" d="M11.916,178.8,10,180.127a84.81,84.81,0,0,0,63.236,37.882l.147-2.358A82.826,82.826,0,0,1,11.916,178.8Z" transform="translate(4.74 84.834)" fill="#f7f5f4"></path>
      <path id="Path_199" data-name="Path 199" d="M12.5,178.495l-.147-.295L9.4,180.116l.147.295a85.335,85.335,0,0,0,64.12,38.472h.295l.295-3.538h-.295A81.968,81.968,0,0,1,12.5,178.495Zm61.025,39.8a85.069,85.069,0,0,1-63.236-37.882l1.916-1.327a82.826,82.826,0,0,0,61.467,36.851Z" transform="translate(4.456 84.549)" fill="#f7f5f4"></path>
      <path id="Path_200" data-name="Path 200" d="M86.7,208.156l1.179,2.064a85.249,85.249,0,0,0,34.2-37.588l-2.064-1.032A83.3,83.3,0,0,1,86.7,208.156Z" transform="translate(41.236 81.421)" fill="#f7f5f4"></path>
      <path id="Path_201" data-name="Path 201" d="M86.395,207.951l-.295.147,1.769,3.1.295-.147A86.667,86.667,0,0,0,123.1,172.869l.147-.295L120,171.1l-.147.295A81.925,81.925,0,0,1,86.395,207.951Zm35.966-35.082a85.249,85.249,0,0,1-34.2,37.588l-1.179-2.064A83.3,83.3,0,0,0,120.3,171.837Z" transform="translate(40.951 81.184)" fill="#f7f5f4"></path>
      <path id="Path_202" data-name="Path 202" d="M72.59,91.6,72,93.811a82.931,82.931,0,0,1,59.256,56.6l2.211-.59A85.175,85.175,0,0,0,72.59,91.6Z" transform="translate(34.25 43.499)" fill="#f7f5f4"></path>
      <path id="Path_203" data-name="Path 203" d="M131.051,151.045l.147.295,3.39-1.032-.147-.295A85.856,85.856,0,0,0,83.882,94.738a11.2,11.2,0,0,0-1.621-.59A71.966,71.966,0,0,0,72.679,91.2h-.295L71.5,94.59h.295q4.422,1.106,8.844,2.653c.59.147,1.179.442,1.621.59A83.083,83.083,0,0,1,131.051,151.045Zm.442-.442A83.443,83.443,0,0,0,72.237,94l.59-2.211a85.631,85.631,0,0,1,61.025,58.224Z" transform="translate(34.013 43.309)" fill="#f7f5f4"></path>
      <path id="Path_204" data-name="Path 204" d="M53.17,96.711,52.286,94.5A85.311,85.311,0,0,0,.4,172.623H2.758A82.742,82.742,0,0,1,53.17,96.711Z" transform="translate(0.19 44.873)" fill="#f7f5f4"></path>
      <path id="Path_205" data-name="Path 205" d="M53.8,97.39l.295-.147L52.77,94h-.295A86.1,86.1,0,0,0,0,173.3v.295H3.538V173.3A82.071,82.071,0,0,1,53.8,97.39ZM.59,172.86A85.156,85.156,0,0,1,52.475,94.737l.884,2.211A82.742,82.742,0,0,0,2.948,172.86Z" transform="translate(0 44.636)" fill="#f7f5f4"></path>
      <circle id="Ellipse_15" data-name="Ellipse 15" cx="67.805" cy="67.805" r="67.805" transform="translate(5.797 270.453) rotate(-78.252)" fill="none"></circle>
      <path id="Path_206" data-name="Path 206" d="M149.811,170.032a69.154,69.154,0,0,0-44.663-64.71c-.59-.147-1.179-.442-1.621-.59A69.3,69.3,0,1,0,80.679,239.458h3.538C120.625,237.247,149.811,207.03,149.811,170.032Zm-137.084,0a67.805,67.805,0,1,1,67.805,67.805A67.815,67.815,0,0,1,12.727,170.032Z" transform="translate(5.404 47.907)" fill="#f7f5f4"></path>
    </g>
    <g id="Group_92" data-name="Group 92" transform="translate(248.157 225.109)">
      <path id="Path_207" data-name="Path 207" d="M177.239,202.669a29.34,29.34,0,0,1-9.139-3.98l4.569-10.318a28.258,28.258,0,0,0,7.665,3.538,29.666,29.666,0,0,0,8.7,1.327c5.307,0,8.107-1.327,8.107-3.98a3.1,3.1,0,0,0-2.358-3.1,34.8,34.8,0,0,0-7.37-2.211,50.96,50.96,0,0,1-9.286-2.653,16.44,16.44,0,0,1-6.486-4.422c-1.769-2.064-2.653-4.717-2.653-8.255a14.251,14.251,0,0,1,2.506-8.107,16.381,16.381,0,0,1,7.37-5.749c3.243-1.474,7.37-2.064,12.087-2.064a41.492,41.492,0,0,1,9.581,1.032,30.2,30.2,0,0,1,8.4,3.243l-4.275,10.466a29.3,29.3,0,0,0-13.708-3.832c-2.8,0-4.864.442-6.043,1.179a3.706,3.706,0,0,0-1.916,3.243,3.088,3.088,0,0,0,2.211,2.948,53.064,53.064,0,0,0,7.223,2.064,49.492,49.492,0,0,1,9.434,2.653,17.559,17.559,0,0,1,6.486,4.422,11.935,11.935,0,0,1,2.653,8.107,14.6,14.6,0,0,1-2.506,8.107c-1.621,2.506-4.127,4.275-7.37,5.749a29.514,29.514,0,0,1-12.087,2.211A51.7,51.7,0,0,1,177.239,202.669Z" transform="translate(-168.1 -152.7)" fill="#f7f5f4"></path>
      <path id="Path_208" data-name="Path 208" d="M212.966,200.853a25.266,25.266,0,0,1-9.729-9.139,25.533,25.533,0,0,1-3.538-13.266,24.8,24.8,0,0,1,3.538-13.266,24.221,24.221,0,0,1,9.729-9.139,29.282,29.282,0,0,1,14-3.243,29.707,29.707,0,0,1,12.234,2.358,23.427,23.427,0,0,1,8.992,6.928l-8.844,8.107c-3.243-3.832-7.075-5.749-11.645-5.749a14.97,14.97,0,0,0-7.223,1.769,12.266,12.266,0,0,0-4.864,5.012,15.139,15.139,0,0,0-1.769,7.37,14.742,14.742,0,0,0,1.769,7.37,12.266,12.266,0,0,0,4.864,5.012,14.178,14.178,0,0,0,7.223,1.769c4.569,0,8.4-1.916,11.645-5.749L248.2,195.1a24.587,24.587,0,0,1-8.992,6.928,29.707,29.707,0,0,1-12.234,2.358A33.317,33.317,0,0,1,212.966,200.853Z" transform="translate(-153.121 -152.653)" fill="#f7f5f4"></path>
      <path id="Path_209" data-name="Path 209" d="M281.61,181.7a11.891,11.891,0,0,1,2.358,7.665,11.412,11.412,0,0,1-5.306,10.023c-3.538,2.358-8.549,3.538-15.182,3.538H236.8V153.4h25.353c6.338,0,11.2,1.179,14.445,3.538a11.174,11.174,0,0,1,5.012,9.434,11.883,11.883,0,0,1-6.633,10.76A13.484,13.484,0,0,1,281.61,181.7ZM250.8,163.423V173h9.581q7.075,0,7.075-4.864c0-3.1-2.358-4.717-7.075-4.717Zm19.162,24.321c0-3.39-2.506-5.012-7.37-5.012H250.8v10.023H262.6C267.46,192.756,269.966,191.135,269.966,187.745Z" transform="translate(-135.535 -152.368)" fill="#f7f5f4"></path>
      <path id="Path_210" data-name="Path 210" d="M280.639,202.669a29.34,29.34,0,0,1-9.139-3.98l4.569-10.318a28.258,28.258,0,0,0,7.665,3.538,29.666,29.666,0,0,0,8.7,1.327c5.306,0,8.107-1.327,8.107-3.98a3.1,3.1,0,0,0-2.358-3.1,34.8,34.8,0,0,0-7.37-2.211,50.958,50.958,0,0,1-9.286-2.653,16.439,16.439,0,0,1-6.486-4.422c-1.769-2.064-2.653-4.717-2.653-8.255a14.251,14.251,0,0,1,2.506-8.107,16.381,16.381,0,0,1,7.37-5.749c3.243-1.474,7.37-2.064,12.087-2.064a41.492,41.492,0,0,1,9.581,1.032,30.2,30.2,0,0,1,8.4,3.243l-4.275,10.466a29.3,29.3,0,0,0-13.708-3.832c-2.8,0-4.864.442-6.044,1.179a3.705,3.705,0,0,0-1.916,3.243,3.088,3.088,0,0,0,2.211,2.948,53.065,53.065,0,0,0,7.223,2.064,49.491,49.491,0,0,1,9.434,2.653,17.559,17.559,0,0,1,6.486,4.422,11.935,11.935,0,0,1,2.653,8.107,14.6,14.6,0,0,1-2.506,8.107c-1.621,2.506-4.127,4.275-7.37,5.749a29.514,29.514,0,0,1-12.087,2.211A50.588,50.588,0,0,1,280.639,202.669Z" transform="translate(-119.086 -152.7)" fill="#f7f5f4"></path>
    </g>
    <g id="Group_94" data-name="Group 94" transform="translate(469.061 106.744)">
      <g id="Group_93" data-name="Group 93">
        <path id="Path_211" data-name="Path 211" d="M331.361,72.4H317.8v1.179h12.382Z" transform="translate(-317.8 -72.4)" fill="#f7f5f4"></path>
        <path id="Path_212" data-name="Path 212" d="M328.779,73.579H342.34V72.4H327.6A8.89,8.89,0,0,0,328.779,73.579Z" transform="translate(-313.155 -72.4)" fill="#f7f5f4"></path>
        <path id="Path_213" data-name="Path 213" d="M368.561,72.4H355v1.179h12.382Z" transform="translate(-300.166 -72.4)" fill="#f7f5f4"></path>
        <path id="Path_214" data-name="Path 214" d="M364.8,72.4a4.487,4.487,0,0,0,1.179,1.179H379.54V72.4Z" transform="translate(-295.521 -72.4)" fill="#f7f5f4"></path>
      </g>
      <circle id="Ellipse_16" data-name="Ellipse 16" cx="1.327" cy="1.327" r="1.327" transform="translate(40.978 6.633)" fill="#f7f5f4"></circle>
    </g>
    <g id="Group_95" data-name="Group 95" transform="translate(306.37 449.455)">
      <path id="Path_215" data-name="Path 215" d="M274.963,321.114a22.788,22.788,0,0,0-4.569.59,16.168,16.168,0,0,0-10.466-3.685h-1.474a16.711,16.711,0,0,0-33.018,2.948H224.4a16.8,16.8,0,0,0-16.8,16.8,16.549,16.549,0,0,0,16.214,16.656h51.443a16.658,16.658,0,0,0-.295-33.313Z" transform="translate(-207.6 -304.9)" fill="#f7f5f4"></path>
      <path id="Path_216" data-name="Path 216" d="M234.94,356.367l-5.6-16.067H220.2l6.928,11.2h-5.6l14.74,17.836-6.043-13.119Z" transform="translate(-201.627 -288.12)" fill="#f7f5f4"></path>
      <path id="Path_217" data-name="Path 217" d="M228.9,341.49l3.832,8.7,1.474-.59-3.685-8.7Z" transform="translate(-197.503 -287.835)" fill="#f7f5f4"></path>
      <rect id="Rectangle_56" data-name="Rectangle 56" width="1.769" height="9.434" transform="translate(43.25 53.712) rotate(-23.553)" fill="#f7f5f4"></rect>
      <path id="Path_218" data-name="Path 218" d="M245.6,341.49l3.685,8.7,1.621-.59-3.832-8.7Z" transform="translate(-189.587 -287.835)" fill="#f7f5f4"></path>
      <rect id="Rectangle_57" data-name="Rectangle 57" width="1.769" height="9.434" transform="translate(66.091 53.679) rotate(-23.553)" fill="#f7f5f4"></rect>
      <rect id="Rectangle_58" data-name="Rectangle 58" width="1.769" height="9.434" transform="translate(39.891 60.62) rotate(-23.553)" fill="#f7f5f4"></rect>
      <path id="Path_219" data-name="Path 219" d="M243.2,346.237l3.832,8.7,1.621-.737-3.832-8.7Z" transform="translate(-190.725 -285.655)" fill="#f7f5f4"></path>
      <rect id="Rectangle_59" data-name="Rectangle 59" width="1.769" height="9.434" transform="translate(62.732 60.588) rotate(-23.553)" fill="#f7f5f4"></rect>
    </g>
    <path id="Path_220" data-name="Path 220" d="M392.7,80.6c0-4.422-5.159-4.275-7.96-7.96-2.064,2.653-4.864,3.39-6.486,4.864H368.084V75.585A3.649,3.649,0,0,0,364.4,71.9H352.018a3.649,3.649,0,0,0-3.685,3.685V77.5h-11.94c-1.769-1.621-4.717-2.358-6.633-4.864-3.1,4.127-7.96,3.538-7.96,7.96a3.991,3.991,0,0,0,2.948,4.275c-.147.147-.147.295-.147.59,0,1.032,1.327,1.916,3.243,2.358V89h3.243V87.819c2.211-.295,3.832-1.327,3.832-2.506a.886.886,0,0,0-.147-.59,5.2,5.2,0,0,0,1.916-1.179h11.645v1.916a3.649,3.649,0,0,0,3.685,3.685H364.4a3.649,3.649,0,0,0,3.685-3.685V83.545h9.876a4.233,4.233,0,0,0,1.916,1.179c-.147.147-.147.295-.147.59,0,1.179,1.474,2.064,3.39,2.358v1.179h3.243V87.672c2.064-.295,3.538-1.327,3.538-2.358a.886.886,0,0,0-.147-.59C391.521,84.282,392.7,83.1,392.7,80.6Zm-32.723,3.1a3.759,3.759,0,0,1-3.538,0,3.458,3.458,0,0,1,0-6.191,3.144,3.144,0,0,1,1.769-.442,3.925,3.925,0,0,1,1.769.442,3.438,3.438,0,0,1,1.916,3.1A4.086,4.086,0,0,1,359.977,83.692Z" transform="translate(153.157 34.107)" fill="#f7f5f4"></path>
  </g>
</svg>
