<?xml version="1.0" encoding="UTF-8"?>
<svg xmlns="http://www.w3.org/2000/svg" width="100" height="599.994" viewBox="0 0 100 599.994">
  <g id="Group_178" data-name="Group 178" transform="translate(0 239)" opacity="0.5">
    <g id="Group_112" data-name="Group 112" transform="translate(0 196.841)" opacity="0.3">
      <path id="Path_235" data-name="Path 235" d="M528.46,332.916l93.333-27.954-4.983-17.2-94.761,28.72Z" transform="translate(-522.048 -287.759)" fill="#6b96bb"></path>
      <path id="Path_236" data-name="Path 236" d="M526.409,428.342l94.659-27.648-5.544-17.714-93.843,28.21Z" transform="translate(-521.17 -343.296)" fill="#6b96bb"></path>
      <path id="Path_237" data-name="Path 237" d="M527.878,525.168l93.843-27.546-4.678-17.713-94.506,28.107Z" transform="translate(-522.18 -399.828)" fill="#6b96bb"></path>
      <path id="Path_238" data-name="Path 238" d="M525.756,620.014l95.373-26.577-5.544-17.458-94.15,28.414Z" transform="translate(-521.13 -455.861)" fill="#6b96bb"></path>
    </g>
    <g id="Group_114" data-name="Group 114" transform="translate(0.306)" opacity="0.3">
      <path id="Path_236-2" data-name="Path 236" d="M526.409,428.342l94.659-27.648-5.544-17.714-93.843,28.21Z" transform="translate(-521.477 -382.98)" fill="#6b96bb"></path>
      <path id="Path_237-2" data-name="Path 237" d="M527.878,525.168l93.843-27.546-4.678-17.713-94.506,28.107Z" transform="translate(-522.486 -439.512)" fill="#6b96bb"></path>
      <path id="Path_238-2" data-name="Path 238" d="M525.756,620.014l95.373-26.577-5.544-17.458-94.15,28.414Z" transform="translate(-521.436 -495.545)" fill="#6b96bb"></path>
      <path id="Path_239" data-name="Path 239" d="M527.847,811.15l93.843-27.6-4.882-17.662L522.66,794.1Z" transform="translate(-522.506 -606.309)" fill="#6b96bb"></path>
      <path id="Path_240" data-name="Path 240" d="M527.471,717.66l93.792-27.751-5.187-17.662-94.149,28.209Z" transform="translate(-521.773 -551.693)" fill="#6b96bb"></path>
    </g>
    <g id="Group_117" data-name="Group 117" transform="translate(0.306 -199)" opacity="0.3">
      <path id="Path_236-3" data-name="Path 236" d="M526.409,428.342l94.659-27.648-5.544-17.714-93.843,28.21Z" transform="translate(-521.477 -382.98)" fill="#6b96bb"></path>
      <path id="Path_241" data-name="Path 241" d="M526.409,428.342l94.659-27.648-5.544-17.714-93.843,28.21Z" transform="translate(-521.375 -422.98)" fill="#6b96bb"></path>
      <path id="Path_237-3" data-name="Path 237" d="M527.878,525.168l93.843-27.546-4.678-17.713-94.506,28.107Z" transform="translate(-522.486 -439.512)" fill="#6b96bb"></path>
      <path id="Path_238-3" data-name="Path 238" d="M525.756,620.014l95.373-26.577-5.544-17.458-94.15,28.414Z" transform="translate(-521.436 -495.545)" fill="#6b96bb"></path>
      <path id="Path_239-2" data-name="Path 239" d="M527.847,811.15l93.843-27.6-4.882-17.662L522.66,794.1Z" transform="translate(-522.506 -606.309)" fill="#6b96bb"></path>
      <path id="Path_240-2" data-name="Path 240" d="M527.471,717.66l93.792-27.751-5.187-17.662-94.149,28.209Z" transform="translate(-521.773 -551.693)" fill="#6b96bb"></path>
    </g>
  </g>
</svg>
